<?xml version="1.0" standalone="no"?>
<!DOCTYPE svg PUBLIC "-//W3C//DTD SVG 1.1//EN" "http://www.w3.org/Graphics/SVG/1.1/DTD/svg11.dtd" >
<svg>
<metadata>
Created by FontForge 20090914 at Wed Oct  4 09:28:11 2017
 By www-data
Designed by: Subrata Sen  This font is free software; you can redistribute it and/or modify it under the terms of the GNU General Public License as published by the Free Software Foundation; either version 2 of the License, or (at your option) any later version. This font is distributed in the hope that it will be useful, but WITHOUT ANY WARRANTY; without even the implied warranty of MERCHANTABILITY or FITNESS FOR A PARTICULAR PURPOSE. See the GNU General Public License (http://www.gnu.org/licenses/gpl.txt), in the COPYING file for more details.

As a special exception, if you create a document which uses this font, and embed this font or unaltered portions of this font into the document, this font does not by itself cause the resulting document to be covered by the GNU General Public License. This exception does not however invalidate any other reasons why the document might be covered by the GNU General Public License. If you modify this font, you may extend this exception to your version of the font, but you are not obligated to do so. If you do not wish to do so, delete this exception statement from your version.
</metadata>
<defs>
<font id="BenSenHandwriting" horiz-adv-x="0" >
  <font-face 
    font-family="BenSenHandwriting"
    font-weight="400"
    font-stretch="normal"
    units-per-em="2048"
    panose-1="2 0 5 0 2 0 0 2 0 4"
    ascent="1638"
    descent="-410"
    bbox="-1253 -728.997 2174 2007"
    underline-thickness="20"
    underline-position="-123"
    unicode-range="U+000D-U+25CC"
  />
<missing-glyph horiz-adv-x="1767" 
d="M1659 1767v-1767h-1550v1767h1550zM217 1659v-1550h1333v1550h-1333z" />
    <glyph glyph-name=".notdef" horiz-adv-x="1767" 
d="M1659 1767v-1767h-1550v1767h1550zM217 1659v-1550h1333v1550h-1333z" />
    <glyph glyph-name="nonmarkingreturn" unicode="&#xd;" horiz-adv-x="516" 
 />
    <glyph glyph-name="space" unicode=" " horiz-adv-x="516" 
 />
    <glyph glyph-name="exclam" unicode="!" horiz-adv-x="727" 
d="M378 999c0 41.333 8.33301 74.668 25 100.001c24 37.333 53.333 56 88 56c34 0 64.667 -14.333 92 -43v-721c-4 -22.667 -8 -39 -12 -49c-14 -31.333 -35.333 -44 -64 -38c-19.333 5.33301 -31 70.666 -35 195.999zM601 164.002c10 -22.667 14.999 -46.667 14.999 -72
c0 -22.667 -3.83301 -38.5 -11.5 -47.5s-23.167 -18.667 -46.5 -29s-44.333 -15.5 -63 -15.5c-27.333 0 -49.166 9.66699 -65.499 29s-24.5 42 -24.5 68c0 32.667 21 66.667 63 102c18 14.667 36.333 22 55 22c36 0 62 -19 78 -57z" />
    <glyph glyph-name="quotedbl" unicode="&#x22;" horiz-adv-x="487" 
d="M338 1210c48.667 0 72.9971 -18.3311 72.9971 -54.998c0 -10.667 1.5 -27 4.5 -49s4.5 -38.333 4.5 -49c0 -31.333 -9 -54 -27 -68c-10.667 -8 -34.5 -16.5 -71.5 -25.5s-63.833 -13.5 -80.5 -13.5c-36.667 0 -66.667 16.333 -90 49c-35.333 49.333 -53 103.333 -53 162
c0 78 34 161.333 102 250c7.33301 6.66699 18.333 19.667 33 39c16.667 15.333 29.667 26.333 39 33c31.333 22 55.333 31.333 72 28c-1.33301 -13.333 -2.66602 -26 -3.99902 -38c-4 -7.33301 -13.667 -19 -29 -35l-45 -86c-10.667 -22 -29.667 -76.667 -57 -164
c4 -2.66699 8.66699 -5.33398 14 -8.00098c10.667 1.33301 28.334 6.66602 53.001 15.999s45.334 14 62.001 14z" />
    <glyph glyph-name="numbersign" unicode="#" horiz-adv-x="1062" 
d="M983 379h-248l-65 -350c-4.66699 -24.667 -26 -37 -64 -37c-42 0 -60.333 12.333 -55 37l69 350h-270l-76 -350c-4 -22 -23.667 -33 -59 -33c-42.667 0 -61.667 11 -57 33l75 350h-157c-19.333 0 -29 17 -29 51c0 31.333 9.66699 47 29 47h174l63 324h-237
c-19.333 0 -29 16.333 -29 49s9.66699 49 29 49h254l57 293c4 22 26.667 33 68 33c39.333 0 57 -11 53 -33l-58 -293h269l67 293c6 23.333 30 35 72 35c39.333 0 56.333 -11.667 51 -35l-71 -293h145c20.667 0 31 -15.667 31 -47s-10.333 -48.333 -31 -51h-162l-65 -324h227
c19.333 0 29 -17 29 -51c0 -31.333 -9.66699 -47 -29 -47zM713 801h-279l-68 -324h279z" />
    <glyph glyph-name="percent" unicode="%" horiz-adv-x="1296" 
d="M1175 250c-2.66699 -98.667 -48.334 -161 -137.001 -187c-32.667 -9.33301 -62 -14 -88 -14c-61.333 0 -112.5 24.667 -153.5 74s-61.5 105.333 -61.5 168c0 22 4 44.333 12 67c36.667 102.667 107.667 154 213 154c90 0 154 -43 192 -129
c16.667 -36.667 24.334 -81 23.001 -133zM1007 1036l-490.998 -852c-20.667 -20 -56.334 -84 -107.001 -192c-14.667 -15.333 -29 -23 -43 -23c-24.667 0 -44.334 20 -59.001 60l520 1056c20.667 19.333 42.334 29 65.001 29c27.333 0 54.666 -13 81.999 -39
c5.33301 -5.33301 16.333 -18.333 33 -39zM591.002 762c-1.33301 -42.667 -11.334 -77.666 -30.001 -104.999c-7.33301 -9.33301 -17.666 -19.333 -30.999 -30c-45.333 -45.333 -100 -68 -164 -68c-61.333 0 -112.5 24.667 -153.5 74s-61.5 105.333 -61.5 168
c0 22 4 44.333 12 67c37.333 102.667 108.333 154 213 154c90 0 154.333 -43 193 -129c16 -36.667 23.333 -80.334 22 -131.001zM1003 362.001c-38 15.333 -71.999 22.999 -101.999 22.999c-8.66699 0 -18.334 -1.33301 -29.001 -4c-34 -15.333 -51 -42.666 -51 -81.999
c0 -27.333 7.33301 -55.333 22 -84c8.66699 -16.667 32 -25 70 -25c28.667 0 58.667 5 90 15c53.333 16 80 39.667 80 71c0 37.333 -26.667 66 -80 86zM350.002 870c-16.667 0 -31.001 -2 -43.001 -6c-34.667 -14.667 -52 -40.667 -52 -78c0 -27.333 7 -53 21 -77
c6.66699 -12.667 18.334 -19 35.001 -19c16 0 30.333 2 43 6l51 17c53.333 16 80 40.333 80 73c0 56 -45 84 -135 84z" />
    <glyph glyph-name="ampersand" unicode="&#x26;" horiz-adv-x="1132" 
d="M1063 203l-23.002 -112.994c-95.333 -36.667 -152.666 -53 -171.999 -49c-6.66699 0 -43.667 12.333 -111 37c-17.333 6.66699 -51.333 19 -102 37c-74 -40 -123 -63.333 -147 -70c-54.667 -16.667 -117.667 -25 -189 -25c-79.333 0 -143.166 27 -191.499 81
s-72.5 121.333 -72.5 202c0 39.333 13.667 85 41 137c26 46.667 55.333 85 88 115l84 76c-28.667 62.667 -48.334 111.667 -59.001 147c-16.667 50.667 -25 100.667 -25 150c0 35.333 10.333 83.666 31 144.999c24.667 72.667 74.334 109 149.001 109
c62.667 0 135.667 -38.333 219 -115c58.667 -53.333 88 -99 88 -137c0 -6.66699 -0.666992 -12.334 -2 -17.001c-20 -64 -35 -106.333 -45 -127c-16 -34 -44.667 -72.667 -86 -116c-18.667 -14 -46.667 -36.667 -84 -68l43 -90c33.333 -62.667 67 -110.334 101 -143.001
c20 -20.667 43.667 -42.667 71 -66l99 64c27.333 17.333 52.333 46.666 75 87.999c44 77.333 85 111.333 123 102c8.66699 -1.33301 13 -8 13 -20c0 -18 -8.33301 -40.667 -25 -68l-45 -76c-12 -20.667 -19.667 -34.334 -23 -41.001c-10.667 -17.333 -55 -67 -133 -149
l54 -27c5.33301 -2.66699 40.666 7.66602 105.999 30.999l94 35c8.66699 1.33301 15.667 2 21 2c18.667 0 30.334 -13.667 35.001 -41zM560.998 909.006c0 26 -11 55.999 -33 89.999c-30 48 -66 72 -108 72c-18 0 -35.333 -6 -52 -18c-27.333 -42.667 -41 -75.667 -41 -99
c0 -21.333 8.66699 -59.333 26 -114s32 -93 44 -115l47 39c31.333 26 59.333 56.667 84 92c8 10.667 19 28.334 33 53.001zM556.998 225.005c-52 40 -106.668 108.333 -164.001 205c-8 12.667 -21.667 36 -41 70c-20.667 -8.66699 -49.334 -36.667 -86.001 -84
c-62.667 -80.667 -94 -143 -94 -187c0 -35.333 19 -53 57 -53c10.667 0 26.334 -0.666992 47.001 -2s36.334 -2 47.001 -2c78 0 156 17.667 234 53z" />
    <glyph glyph-name="quotesingle" unicode="'" horiz-adv-x="473" 
d="M430 1317c0 -78 -34.3311 -161.335 -102.998 -250.002c-16 -18 -40 -42 -72 -72c-31.333 -21.333 -55 -30.666 -71 -27.999c1.33301 12 2.66602 25 3.99902 39c4 6.66699 13.667 18 29 34l45 86c10.667 22 29.667 76.667 57 164
c-5.33301 2.66699 -10 5.33398 -14 8.00098c-11.333 -1.33301 -29.333 -6.66602 -54 -15.999s-45 -14 -61 -14c-49.333 0 -74 18.333 -74 55c0 10.667 -1.33301 27 -4 49s-4 38.333 -4 49c0 31.333 9 54 27 68c35.333 26 85.666 39 150.999 39
c38.667 0 68.667 -15.667 90 -47c36 -50.667 54 -105.334 54 -164.001z" />
    <glyph glyph-name="parenleft" unicode="(" horiz-adv-x="655" 
d="M461 -166c-34.667 -12 -77.6689 16.6689 -129.002 86.002l-66 92c-49.333 74 -82.666 133.333 -99.999 178c-78 199.333 -117 381.666 -117 546.999c0 108 8.5 198.833 25.5 272.5s49.5 158.5 97.5 254.5c13.333 28.667 37.333 68.667 72 120
c87.333 135.333 159.666 196.333 216.999 183c21.333 -5.33301 32 -13.666 32 -24.999c0 -10.667 -9.33301 -23 -28 -37c-2.66699 -1.33301 -7.66699 -4.66602 -15 -9.99902c-17.333 -31.333 -31 -55.333 -41 -72c-31.333 -60 -53.666 -105 -66.999 -135
c-71.333 -165.333 -107 -352.333 -107 -561c0 -126.667 6.33301 -228.334 19 -305.001c14.667 -92.667 43.334 -190.334 86.001 -293.001c14.667 -35.333 35.667 -79 63 -131c5.33301 -10.667 18.333 -34.667 39 -72l25 -18c17.333 -16.667 26 -30.334 26 -41.001
c0 -15.333 -10.667 -26.333 -32 -33z" />
    <glyph glyph-name="parenright" unicode=")" horiz-adv-x="663" 
d="M573 737c0 -165.333 -38.665 -347.665 -115.998 -546.998c-19.333 -50 -52.333 -109.333 -99 -178c-80 -120 -140.667 -180 -182 -180c-31.333 0 -47 11.667 -47 35c0 12 8.33301 25.667 25 41c5.33301 4 14 10 26 18l39 70c27.333 50.667 48.666 95 63.999 133
c42 104 70.667 201.667 86 293c12 78 18 179.667 18 305c0 204.667 -35.333 391.667 -106 561c-14 32.667 -36.667 77.667 -68 135l-41 72l-20 14c-15.333 12.667 -23 23.667 -23 33c0 11.333 11 19.666 33 24.999c44.667 10.667 102 -28.333 172 -117
c9.33301 -12 23.666 -33.333 42.999 -64c38 -60 62.667 -100.667 74 -122c81.333 -162.667 122 -338.334 122 -527.001z" />
    <glyph glyph-name="asterisk" unicode="*" horiz-adv-x="1105" 
d="M870 725c-10.667 -5.33301 -31.667 -13.001 -63 -23.001l-213 242l88 -371c-8.66699 -8 -21.667 -12 -39 -12c-10 0 -17.667 0.666992 -23 2c-36.667 8 -76.334 32.667 -119.001 74c-6.66699 5.33301 -15.334 15.666 -26.001 30.999l41 274l-277 -229
c-2.66699 1.33301 -4.66699 2 -6 2c-31.333 18.667 -47 57.334 -47 116.001c0 34.667 2 60 6 76c0 7.33301 1.33301 13 4 17l283 65l-338 117v27c0 42 29.333 76.667 88 104c16.667 8 39.334 17 68.001 27l227 -215l-102 354c10.667 10.667 30.334 16 59.001 16
c50.667 0 102 -21.667 154 -65l-39 -293l290 219c30.667 -4 46 -29.333 46 -76c0 -35.333 -9.66699 -79.666 -29 -132.999l-297 -82l354 -104c5.33301 -8.66699 8 -19.667 8 -33c0 -50.667 -32.667 -93 -98 -127z" />
    <glyph glyph-name="plus" unicode="+" horiz-adv-x="1085" 
d="M938 553h-325.999v-356c-38 -36 -70 -54 -96 -54c-18 0 -32.333 9 -43 27c-2.66699 5.33301 -6.33398 14.333 -11.001 27v356h-352c-32.667 12 -49 31.667 -49 59c0 24.667 16.333 54.667 49 90h354v324c37.333 34 69 51 95 51c20 0 34.333 -11 43 -33
c1.33301 -2.66699 3.33301 -8.66699 6 -18v-319h330c36.667 -28.667 55 -56 55 -82c0 -27.333 -18.333 -51.333 -55 -72z" />
    <glyph glyph-name="comma" unicode="," horiz-adv-x="589" 
d="M532 109c0 -79.333 -34.3311 -162.669 -102.998 -250.002c-24.667 -31.333 -48.667 -55.333 -72 -72c-31.333 -22 -55 -31.667 -71 -29c1.33301 14 2.66602 27 3.99902 39c4 6.66699 13.667 18.334 29 35.001l45 86c10.667 22 29.667 76.667 57 164
c-5.33301 2.66699 -10 5.33398 -14 8.00098c-11.333 -1.33301 -29.333 -6.83301 -54 -16.5s-45 -14.5 -61 -14.5c-49.333 0 -74 18.667 -74 56c0 10.667 -1.33301 27 -4 49s-4 38.333 -4 49c0 31.333 9 54 27 68c35.333 25.333 85.666 38 150.999 38
c38.667 0 68.667 -15.667 90 -47c36 -50 54 -104.333 54 -163z" />
    <glyph glyph-name="hyphen" unicode="-" horiz-adv-x="987" 
d="M87 739c-34 -10.667 -51.001 -27.667 -51.001 -51c0 -20.667 13.667 -44 41 -70c10.667 -10.667 24.334 -21.334 41.001 -32.001h741c36 21.333 54 43 54 65c0 26 -26 50.667 -78 74c-8.66699 2.66699 -21.667 7.33398 -39 14.001h-709z" />
    <glyph glyph-name="period" unicode="." horiz-adv-x="737" 
d="M624 160c0 -36 -17.334 -72.999 -52.001 -110.999s-69 -55 -103 -51c-19.333 0 -40.666 9.66699 -63.999 29c-28.667 24 -47 37.667 -55 41c-23.333 9.33301 -35 32.333 -35 69c0 61.333 17.667 103.666 53 126.999c28.667 34 61 51 97 51c34 0 63.333 -15 88 -45
c20 -18.667 33.667 -31.667 41 -39c20 -20 30 -43.667 30 -71z" />
    <glyph glyph-name="slash" unicode="/" horiz-adv-x="860" 
d="M717 1204l-450.999 -1329c-14 -6.66699 -27.667 -10 -41 -10c-28.667 0 -43 25.333 -43 76c0 38 8.33301 86.333 25 145l352 1262c27.333 10.667 52.666 16 75.999 16c57.333 0 86 -39.667 86 -119c0 -18.667 -1.33301 -32.334 -4 -41.001z" />
    <glyph glyph-name="colon" unicode=":" horiz-adv-x="731" 
d="M401 436c-20.667 -2.66699 -40.3311 -13.667 -58.998 -33c-1.33301 -2.66699 -6.33301 -8 -15 -16c-36.667 -23.333 -55 -59.333 -55 -108c0 -32 14.333 -62.333 43 -91l43 -43c23.333 -16 46.666 -24 69.999 -24c35.333 -5.33301 73.166 10 113.499 46
s60.5 72.333 60.5 109c0 28.667 -13 53.334 -39 74.001l-51 43c-28.667 37.333 -65.667 51.666 -111 42.999zM401.003 1092c-20.667 -3.33301 -40.3311 -14.333 -58.998 -33c-1.33301 -2.66699 -6.33301 -8.33398 -15 -17.001c-36.667 -22.667 -55 -58.667 -55 -108
c0 -31.333 14.333 -61.333 43 -90l43 -43c23.333 -16.667 46.666 -25 69.999 -25c35.333 -5.33301 73.166 10.167 113.499 46.5s60.5 72.833 60.5 109.5c0 28.667 -13 53.334 -39 74.001l-51 43c-28.667 36.667 -65.667 51 -111 43z" />
    <glyph glyph-name="semicolon" unicode=";" horiz-adv-x="706" 
d="M577 920c0 -38.667 -18.832 -74.333 -56.499 -107s-75.5 -47 -113.5 -43c-40 0 -90.667 40.333 -152 121c-5.33301 13.333 -8 27 -8 41c0 43.333 19.667 78 59 104c34.667 34 67 51 97 51c39.333 0 78.166 -18 116.499 -54s57.5 -73.667 57.5 -113zM614.001 211.001
c0 -79.333 -34.332 -162.667 -102.999 -250c-24.667 -31.333 -48.334 -55.333 -71.001 -72c-32 -21.333 -56 -30.666 -72 -27.999l4 39c4 6.66699 13.667 18 29 34l45 86c10.667 22 29.667 76.667 57 164c-5.33301 2.66699 -10 5.66699 -14 9
c-11.333 -2 -29.166 -7.66699 -53.499 -17s-44.833 -14 -61.5 -14c-49.333 0 -74 18.333 -74 55c0 10.667 -1.33301 27 -4 49s-4 38.333 -4 49c0 31.333 9 54 27 68c35.333 26 85.666 39 150.999 39c38.667 0 68.667 -15.667 90 -47c36 -50.667 54 -105.334 54 -164.001z
" />
    <glyph glyph-name="less" unicode="&#x3c;" horiz-adv-x="1290" 
d="M1179 190c38.667 -43.333 57.999 -78.668 57.999 -106.001c0 -23.333 -13 -41 -39 -53c-8 -4 -21.667 -8.33301 -41 -13l-1020 437c-30 20 -45 45.667 -45 77c0 26 10.333 53.333 31 82c2.66699 4.66699 7.33398 10.334 14.001 17.001l1020 420c18 -6 31 -11 39 -15
c27.333 -14.667 41 -33.667 41 -57c0 -31.333 -19.333 -66.333 -58 -105l-802 -337z" />
    <glyph glyph-name="equal" unicode="=" horiz-adv-x="1275" 
d="M1027 741h-740.999c-16.667 11.333 -30.334 22.333 -41.001 33c-27.333 26 -41 49.333 -41 70c0 23.333 17 40.333 51 51h709c10.667 -4 29.667 -11.667 57 -23c40 -17.333 60 -39 60 -65c0 -22 -18 -44 -54 -66zM1064 360h-740.999
c-16.667 11.333 -30.334 22.333 -41.001 33c-27.333 26 -41 49.333 -41 70c0 23.333 17 40.333 51 51h709l57 -22c39.333 -18 59 -40 59 -66c0 -22 -17.667 -44 -53 -66z" />
    <glyph glyph-name="greater" unicode="&#x3e;" horiz-adv-x="1304" 
d="M1179 442l-1042 -471.001c-45.333 7.33301 -68 29.333 -68 66c0 24.667 11 54 33 88c6.66699 10.667 18.334 25.667 35.001 45l835 365l-835 364c-16.667 16.667 -29 30.334 -37 41.001c-26 34 -39 62.667 -39 86c0 34 25.333 56.667 76 68l1042 -459
c14 -15.333 23.667 -27 29 -35c19.333 -28.667 29 -54.667 29 -78c0 -35.333 -19.333 -62 -58 -80z" />
    <glyph glyph-name="question" unicode="?" horiz-adv-x="942" 
d="M872 1001c0 -128 -50.3369 -231.331 -151.004 -309.998c-217.333 -168.667 -332.666 -286.334 -345.999 -353.001c-3.33301 -12 3.33398 -29.5 20.001 -52.5l25 -34.5c1.33301 -6.66699 -9 -12.834 -31 -18.501s-37 -7.16699 -45 -4.5c-16.667 26 -29 48 -37 66
c-24.667 52.667 -37 95.667 -37 129c0 96.667 54.667 179.667 164 249c84.667 54 160.334 108.333 227.001 163c86 69.333 129 117 129 143c0 38.667 -38.667 70.667 -116 96c-63.333 20.667 -125.666 31 -186.999 31c-13.333 -0.666992 -22 -1 -26 -1
c-36 -6 -64.667 -13.333 -86 -22c-10 -4 -23 -12.333 -39 -25c16 -13.333 33 -25.666 51 -36.999c13.333 -15.333 19.333 -32 18 -50c-1.33301 -27.333 -18.333 -62.166 -51 -104.499s-62.667 -63.5 -90 -63.5c-24.667 0 -49.334 4.66699 -74.001 14
c-31.333 11.333 -48.666 26.166 -51.999 44.499s-5 36.166 -5 53.499c0 52.667 8.66699 88.667 26 108c-16 9.33301 -37 23.666 -63 42.999c12 38 32.333 63 61 75c36 -9.33301 62 -20.333 78 -33c105.333 81.333 232.333 122 381 122c88.667 0 153.5 -17.167 194.5 -51.5
s61.5 -93.166 61.5 -176.499zM392.996 19.002c-18 -18 -34.999 -26.998 -50.999 -26.998c-14 0 -35.333 24 -64 72c-10.667 18 -16 32.667 -16 44c0 12.667 6.66699 23 20 31c7.33301 4 21.666 12.333 42.999 25c18 10.667 31.667 16 41 16
c19.333 0 35.5 -8.83301 48.5 -26.5s19.5 -35.834 19.5 -54.501c0 -24.667 -13.667 -51.334 -41 -80.001z" />
    <glyph glyph-name="at" unicode="@" horiz-adv-x="1441" 
d="M1359 541c-13.333 -128.667 -56.9951 -231.996 -130.995 -309.996c-78 -83.333 -179.667 -125 -305 -125h-57c-19.333 4.66699 -32.333 7.66699 -39 9c-60 9.33301 -129.667 34.333 -209 75c-84.667 42.667 -143.334 85.667 -176.001 129c-6 7.33301 -9 17.666 -9 30.999
c0 50.667 23.333 100.667 70 150h33c87.333 0 166.333 7.33301 237 22c27.333 5.33301 76.666 16.333 147.999 33c44.667 10.667 67 29.667 67 57c0 49.333 -51 101.333 -153 156c-64 34 -120 51 -168 51c-20.667 0 -37 -4 -49 -12c1.33301 -8 10.666 -28.667 27.999 -62
c8.66699 -14.667 13 -26 13 -34c0 -23.333 -24.667 -45.333 -74 -66c-26 -10.667 -52.667 -16 -80 -16c-69.333 0 -104 43 -104 129c0 64 49 114.333 147 151c54.667 20.667 110.667 31 168 31c105.333 0 198.333 -32 279 -96
c36.667 -28.667 62.334 -66.334 77.001 -113.001l25 -108c2.66699 -12.667 4 -24.334 4 -35.001c0 -70 -53.333 -128 -160 -174c-69.333 -30 -143 -52.667 -221 -68c-12 -2.66699 -29 -5.33398 -51 -8.00098l41 -84c14.667 -19.333 53.667 -29 117 -29
c99.333 0 199.666 48 300.999 144c91.333 87.333 137 161 137 221c0 96.667 -45 190.667 -135 282c-62.667 64.667 -146 114.667 -250 150c-83.333 28.667 -154.333 43 -213 43c-90 0 -159 -13.667 -207 -41c-30 -18 -70.333 -57.667 -121 -119
c-66.667 -82 -100 -201.333 -100 -358c0 -152 31.333 -275.667 94 -371c14 -20.667 43.333 -52 88 -94l74 -94c26 -22 99.667 -38.333 221 -49c91.333 -8.66699 137 -41.667 137 -99c-57.333 0 -102.333 1.33301 -135 4c-98 8.66699 -171.667 27.334 -221 56.001
c-96.667 56 -162.334 99.667 -197.001 131c-69.333 64 -130.666 152 -183.999 264c-28.667 60 -43 156.333 -43 289c0 168 34.667 292.667 104 374c134 157.333 314.333 247.666 541 270.999c9.33301 0 22.666 0.666992 39.999 2s30.666 2 39.999 2
c134 0 253.333 -48.667 358 -146c139.333 -128 209 -277.333 209 -448c0 -27.333 -2 -60 -6 -98z" />
    <glyph glyph-name="bracketleft" unicode="[" horiz-adv-x="471" 
d="M372 -100h-299v1388h299v-141h-152v-1112h152v-135z" />
    <glyph glyph-name="backslash" unicode="\" horiz-adv-x="974" 
d="M829 -16c-2.66699 -28.667 -6 -49.333 -10 -62c-14 -42 -38.667 -63 -74 -63c-14.667 0 -35 5.33301 -61 16l-478 1303c-12 48.667 -18 78.667 -18 90c0 46 19.667 69 59 69c20.667 0 44 -5.33301 70 -16z" />
    <glyph glyph-name="bracketright" unicode="]" horiz-adv-x="440" 
d="M372 -102h-291v131h147v1134h-147v131h291v-1396z" />
    <glyph glyph-name="underscore" unicode="_" horiz-adv-x="1182" 
d="M6 101h1176v-103h-1176v103z" />
    <glyph glyph-name="braceleft" unicode="{" horiz-adv-x="829" 
d="M682 1401c0 -20.667 -8.33398 -47.3311 -25.001 -79.998c-96.667 0 -158 -41 -184 -123c-2.66699 -5.33301 -4 -43.666 -4 -114.999v-221c0 -90 -1.33301 -144.667 -4 -164c-9.33301 -51.333 -35.333 -96.333 -78 -135c-2.66699 -2.66699 -19.667 -16.334 -51 -41.001
c23.333 -18.667 41 -34.334 53 -47.001c38 -38 62 -71.333 72 -100c6.66699 -20.667 10 -82.334 10 -185.001v-110c0 -144.667 4.66699 -230.667 14 -258c18 -49.333 55 -85 111 -107c12 -4 38.667 -11.333 80 -22c8 -20.667 12 -40 12 -58
c0 -13.333 -1.33301 -23.333 -4 -30c-12 -30 -38.667 -45 -80 -45c-57.333 0 -127.666 40.333 -210.999 121c-22 21.333 -40.333 66.333 -55 135c-12.667 58.667 -19 108.334 -19 149.001v326c0 43.333 -17.667 81.666 -53 114.999l-94 86v79l94 86
c35.333 33.333 53 67 53 101v358c0 156 66.333 261.333 199 316c36.667 14.667 71 22 103 22c40.667 0 61 -17.667 61 -53z" />
    <glyph glyph-name="bar" unicode="|" horiz-adv-x="665" 
d="M434 29c-22 -10 -42.999 -15 -62.999 -15c-52 0 -94.333 21.333 -127 64c-12.667 16 -21 33.667 -25 53c0 60 28 103.667 84 131c13.333 6.66699 31.666 10 54.999 10c57.333 0 96.333 -13.667 117 -41c20.667 -20 31 -48 31 -84c0 -58.667 -24 -98 -72 -118z" />
    <glyph glyph-name="braceright" unicode="}" horiz-adv-x="823" 
d="M647 492l-94.002 -86.002c-35.333 -33.333 -53 -71.666 -53 -114.999v-326c0 -49.333 -7.66699 -106 -23 -170c-18 -76 -39.667 -126.333 -65 -151c-60.667 -57.333 -121.667 -86 -183 -86c-65.333 0 -98 26.667 -98 80c0 16 4 34.333 12 55
c37.333 2.66699 64 6.66699 80 12c56 19.333 93 58.333 111 117c16 54.667 20 147.5 12 278.5s-3.33301 223.833 14 278.5c8.66699 27.333 31.334 59.333 68.001 96c12 12.667 30.333 28.334 55 47.001l-47 41c-53.333 46.667 -82.666 100.667 -87.999 162
c-2.66699 30 -4 67.667 -4 113c0 30 1.33301 75.333 4 136s4 106 4 136c0 44 -2.66699 71.333 -8 82c-28.667 60 -92 99 -190 117c-12.667 30 -19 58 -19 84c0 40.667 21.333 61 64 61c91.333 0 164.333 -33.167 219 -99.5s82 -145.833 82 -238.5v-358
c0 -34 17.667 -67.667 53 -101l94 -86v-79z" />
    <glyph glyph-name="divide" unicode="&#xf7;" horiz-adv-x="1075" 
d="M662 801c0 -18.667 -2.83203 -35.999 -8.49902 -51.999s-13.834 -29.833 -24.501 -41.5s-23.667 -20.834 -39 -27.501s-32.333 -10 -51 -10c-18 0 -35 3.5 -51 10.5s-29.833 16.333 -41.5 28s-21 25.5 -28 41.5s-10.5 33 -10.5 51c0 16 3.33301 31.5 10 46.5
s15.667 28.333 27 40s25 21 41 28s33.667 10.5 53 10.5c18 0 34.5 -3.16699 49.5 -9.5s28 -15 39 -26s19.5 -24.167 25.5 -39.5s9 -32 9 -50zM80.001 541.001h921v-80h-921v80zM662.001 199.001c0 -18.667 -2.83301 -36 -8.5 -52s-13.834 -30 -24.501 -42
s-23.667 -21.5 -39 -28.5s-32.333 -10.5 -51 -10.5c-18 0 -35 3.5 -51 10.5s-29.833 16.5 -41.5 28.5s-21 26 -28 42s-10.5 33.333 -10.5 52c0 16 3.33301 31.667 10 47s15.834 28.666 27.501 39.999s25.5 20.5 41.5 27.5s33.333 10.5 52 10.5
c16.667 0 32.5 -3.16699 47.5 -9.5s28 -15.166 39 -26.499s19.833 -24.5 26.5 -39.5s10 -31.5 10 -49.5zM602.001 793.001c0 22.667 -3.49902 40.501 -10.499 53.501s-24.5 22.167 -52.5 27.5c-12 0 -22 -2.5 -30 -7.5s-14.5 -11.333 -19.5 -19
s-8.83301 -16.334 -11.5 -26.001s-4.33398 -19.167 -5.00098 -28.5c1.33301 -21.333 7 -37.5 17 -48.5s26.333 -18.167 49 -21.5c16.667 0 30.667 4.66699 42 14s18.333 28 21 56zM602.002 197.002c0 46 -23.333 69 -70 69c-11.333 0 -20.833 -3 -28.5 -9
s-14 -13.5 -19 -22.5s-8.66699 -18.667 -11 -29s-3.5 -19.833 -3.5 -28.5c0 -7.33301 2.33301 -14.333 7 -21s10.667 -12.5 18 -17.5s15.5 -9.16699 24.5 -12.5s18.167 -5 27.5 -5c7.33301 0 14.333 1 21 3s12.5 5.66699 17.5 11s9 13 12 23s4.5 23 4.5 39z" />
    <glyph glyph-name="danda" unicode="&#x964;" horiz-adv-x="569" 
d="M444 76c-5.33301 -32.667 -11.667 -64.667 -19 -96c-14.667 -64.667 -31.667 -97 -51 -97c-9.33301 0 -18.666 9 -27.999 27l-33 360c-6.66699 75.333 -10 160 -10 254c-15.333 22 -23 71.333 -23 148c0 44.667 1.33301 100 4 166c41.333 40.667 82.333 61 123 61
c31.333 0 49.666 -17 54.999 -51v-281z" />
    <glyph glyph-name="doubledanda" unicode="&#x965;" horiz-adv-x="758" 
d="M445 76c-5.33301 -32.667 -11.667 -64.667 -19 -96c-14.667 -64.667 -31.667 -97 -51 -97c-9.33301 0 -18.666 9 -27.999 27l-33 360c-6.66699 75.333 -10 160 -10 254c-15.333 22 -23 71.333 -23 148c0 44.667 1.33301 100 4 166c41.333 40.667 82.333 61 123 61
c31.333 0 49.666 -17 54.999 -51v-281zM709.999 83c-5.33301 -32.667 -11.667 -64.667 -19 -96c-14.667 -64.667 -31.667 -97 -51 -97c-9.33301 0 -18.666 9 -27.999 27l-33 360c-6.66699 75.333 -10 160 -10 254c-15.333 22 -23 71.333 -23 148c0 44.667 1.33301 100 4 166
c41.333 40.667 82.333 61 123 61c31.333 0 49.666 -17 54.999 -51v-281z" />
    <glyph glyph-name="bn_candrabindu" unicode="&#x981;" horiz-adv-x="100" 
d="M-358 1714c0 -26 -5.33301 -45 -16 -57c-8 -6.66699 -25.667 -16.334 -53 -29.001c-12.667 -5.33301 -27.667 -8 -45 -8c-38.667 0 -64.667 20.333 -78 61c-5.33301 16.667 -8 33.334 -8 50.001c0 22.667 13.667 37.667 41 45c64 14.667 101.333 22 112 22
c31.333 0 47 -28 47 -84zM-308 1432c-44 -23.333 -94.002 -35.001 -150.002 -35.001c-92.667 0 -156.667 11 -192 33c-46.667 28.667 -70 84.334 -70 167.001c16.667 3.33301 30.334 5 41.001 5c66.667 0 100 -21.333 100 -64v-29c2.66699 -9.33301 10.334 -14 23.001 -14
c53.333 0 113.333 19 180 57l59 50c27.333 21.333 47.333 29.333 60 24c9.33301 -5.33301 16 -10 20 -14c15.333 -15.333 23 -33 23 -53c0 -50.667 -31.333 -93 -94 -127zM110.998 1241c0 6.66699 0.999023 -5.66504 2.99902 -36.998v-35c0 -36.667 -3 -58.334 -9 -65.001
c-5.33301 -4 -27 4.66699 -65 26c-4 2 -9 3 -15 3c-9.33301 0 -16.666 -3 -21.999 -9c-16.667 -14.667 -27 -22.667 -31 -24c-4 24.667 -6 47.667 -6 69c0 19.333 2 36.666 6 51.999l21 28c12 10 23.667 15 35 15c14.667 0 33 -3.66699 55 -11
c6.66699 -1.33301 16 -5.33301 28 -12z" />
    <glyph glyph-name="bn_anusvara" unicode="&#x982;" horiz-adv-x="688" 
d="M536 713c-35.333 -44 -60.6689 -72.668 -76.002 -86.001c-27.333 -24.667 -55.333 -37 -84 -37c-39.333 0 -82.666 10.167 -129.999 30.5s-83.666 44.833 -108.999 73.5c-45.333 50.667 -68 134 -68 250v27c2.66699 9.33301 4 16 4 20c22 128.667 82 193 180 193
c42.667 0 85 -7 127 -21c56 -17.333 87.667 -41.666 95 -72.999c8 0 21.333 6.66699 40 20c41.333 -56 62 -133 62 -231c0 -76.667 -13.667 -132 -41 -166zM699.997 19.999l-32.999 -45.002c-75.333 112 -172.333 199.667 -291 263c-39.333 20 -121.333 44.333 -246 73
c-21.333 48 -32 94.667 -32 140c0 36.667 9.33301 62.334 28 77.001c126 -43.333 227.667 -100.666 305 -171.999c14 -12 55.667 -59.667 125 -143l80 -94c31.333 -37.333 52.666 -70.333 63.999 -99zM486.998 986.997l-37 -29.001c-9.33301 48 -31.333 72 -66 72
c-6.66699 -1.33301 -12 -2 -16 -2c-46.667 -6.66699 -89.667 -25 -129 -55c-45.333 -34 -68 -73 -68 -117c0 -10.667 8.33301 -40.667 25 -90c12 -16.667 44 -25 96 -25h31c16.667 2.66699 29 4 37 4c46 4.66699 80.667 46.334 104 125.001c5.33301 18 13 57 23 117z" />
    <glyph glyph-name="bn_visarga" unicode="&#x983;" horiz-adv-x="655" 
d="M558 860c-1.33301 -42 -11.333 -76.666 -30 -103.999c-7.33301 -10 -17.666 -20.333 -30.999 -31c-45.333 -45.333 -100 -68 -164 -68c-61.333 0 -112.5 24.667 -153.5 74s-61.5 105.333 -61.5 168c0 46.667 16 91.5 48 134.5s70 64.5 114 64.5
c4 0 13.167 -1.83301 27.5 -5.5s22.166 -5.5 23.499 -5.5c4 2 6 5 6 9s-0.666992 9.33301 -2 16s-1.33301 12.667 0 18c92.667 0 159.667 -46.333 201 -139c16 -36.667 23.333 -80.334 22 -131.001zM558 264.001c-2.66699 -98 -48.334 -159.999 -137.001 -185.999
c-32.667 -10 -62 -15 -88 -15c-61.333 0 -112.5 24.667 -153.5 74s-61.5 105.333 -61.5 168c0 50.667 16.667 95.5 50 134.5s74.666 58.5 123.999 58.5c9.33301 0 17 -0.666992 23 -2c2.66699 1.33301 7.33398 6.66602 14.001 15.999s11.334 14 14.001 14
c90 0 154.333 -43 193 -129c16 -36.667 23.333 -81 22 -133zM407 958.002c-20.667 11.333 -41.332 16.999 -61.999 16.999c-10.667 0 -19.334 -1.33301 -26.001 -4c-75.333 -32.667 -113 -73 -113 -121c0 -23.333 17.667 -41.666 53 -54.999
c28.667 -12.667 56.667 -19 84 -19c8.66699 0 19.667 1.33301 33 4c66.667 22 100 51.333 100 88c0 34.667 -23 64.667 -69 90zM427.002 360.001c-34 20.667 -65.333 31.001 -94 31.001c-8 0 -14 -0.666992 -18 -2c-70 -27.333 -105 -67 -105 -119
c0 -22.667 20.667 -44.334 62 -65.001c30 -15.333 56.333 -23 79 -23c8.66699 0 17 1.33301 25 4c83.333 26 125 56 125 90c0 27.333 -24.667 55.333 -74 84z" />
    <glyph glyph-name="bn_a" unicode="&#x985;" horiz-adv-x="1536" 
d="M1577 1229c0 -87.333 -9.66504 -128.334 -28.998 -123.001c-42 16 -75.333 24 -100 24c-18 0 -34.333 -3.33301 -49 -10c0 2.66699 -0.666992 -11.666 -2 -42.999c-4 -95.333 -6 -171 -6 -227c0 -188.667 10 -353.334 30 -494.001
c4.66699 -32.667 11.667 -66.667 21 -102c1.33301 -8 5.33301 -24.333 12 -49l33 -103c-4 -12 -7.33301 -21.333 -10 -28c-19.333 -37.333 -53 -56 -101 -56c-18.667 0 -39.667 3.66699 -63 11c-2.66699 0 -7.33398 1.33301 -14.001 4c0 68 -17.333 132 -52 192
c-40.667 70 -92.334 105 -155.001 105c-11.333 0 -23 -2 -35 -6c-39.333 -40 -70.666 -68.667 -93.999 -86c-56 -42.667 -125.667 -64 -209 -64c-53.333 0 -107.333 7 -162 21c-1.33301 1.33301 -30.666 10 -87.999 26c-71.333 20.667 -149.333 58.334 -234 113.001
c-78.667 52 -145.334 107.333 -200.001 166c-20.667 21.333 -31 44.333 -31 69c0 20.667 7.66699 38.667 23 54c9.33301 6.66699 17.333 10 24 10c18 0 40 -15.667 66 -47c42 -50.667 89.667 -92.334 143 -125.001c45.333 -27.333 103.166 -52 173.499 -74
s129.833 -33 178.5 -33c34.667 0 71.667 5 111 15c120 28.667 180 120 180 274v49c-2.66699 14 -4 23.667 -4 29c-8 73.333 -19.667 130.666 -35 171.999c-40.667 109.333 -104 164 -190 164c-62.667 0 -94 -30 -94 -90c0 -11.333 21.5 -24.5 64.5 -39.5
s64.5 -35.5 64.5 -61.5c0 -43.333 -22.667 -85 -68 -125c-36.667 -32.667 -73.667 -49 -111 -49c-48.667 0 -91 22.667 -127 68c-32.667 40.667 -49 86.334 -49 137.001c0 68 28.667 132.333 86 193l-86 14c-74.667 12 -133.334 18 -176.001 18
c-112 0 -185.667 -5.33301 -221 -16c-9.33301 0 -16.333 1.33301 -21 4c-13.333 8 -20 25.667 -20 53c0 18 6.66699 40.667 20 68c2 4 5.66699 9.33301 11 16c14.667 4 34.334 6 59.001 6c74 0 163.167 -7.5 267.5 -22.5s188.5 -33.167 252.5 -54.5
c37.333 22.667 88.666 34 153.999 34c58.667 0 116.667 -12 174 -36c72.667 28.667 153.334 43 242.001 43c42 0 83.667 -3.66699 125 -11c-1.33301 12.667 -2 21.667 -2 27c0 39.333 19.667 59 59 59c9.33301 0 40.666 -7.33301 93.999 -22c4 -8.66699 6 -15 6 -19
c-5.33301 -9.33301 -9.33301 -20.666 -12 -33.999c66.667 18.667 114.334 28 143.001 28c22 0 33 -5.33301 33 -16zM1266 413.999c0 14.667 -1.33301 135.999 -4 363.999l-4 342c-27.333 4 -54 6 -80 6c-54.667 0 -123 -11.333 -205 -34c24.667 -32 41.667 -56 51 -72
c65.333 -108 98 -228.333 98 -361c0 -81.333 -7.33301 -146.666 -22 -195.999c36.667 -6.66699 92 -23 166 -49z" />
    <glyph glyph-name="bn_aa" unicode="&#x986;" horiz-adv-x="1867" 
d="M1929 1182c0 -15.333 0.667969 -28.9971 2.00098 -40.9971c0 -24.667 -12 -37 -36 -37h-86c-23.333 0 -40.666 -0.666992 -51.999 -2l-8 -422c-1.33301 -75.333 3.33398 -242 14.001 -500c11.333 -38 17 -64.667 17 -80c0 -32.667 -8.33301 -53 -25 -61
c-28.667 -15.333 -51.667 -23 -69 -23c-30 0 -56.667 13.667 -80 41c-6.66699 8.66699 -10 36 -10 82c0 66 2 107 6 123l8 746c0 52.667 -2.83301 82.167 -8.5 88.5s-31.5 12.166 -77.5 17.499c-32.667 4 -57.334 6 -74.001 6c-16 0 -31.667 -2 -47 -6
c-12 -208.667 -18 -337 -18 -385c0 -140.667 8 -266.334 24 -377.001c6.66699 -48.667 21.667 -97.667 45 -147l33 -103c-4 -12 -7.33301 -21.333 -10 -28c-19.333 -37.333 -53 -56 -101 -56c-18.667 0 -39.667 3.66699 -63 11c-2.66699 0 -7.33398 1.33301 -14.001 4
c0 68 -17.333 132 -52 192c-40.667 70 -92.334 105 -155.001 105c-11.333 0 -23 -2 -35 -6c-39.333 -40 -70.666 -68.667 -93.999 -86c-56 -42.667 -125.667 -64 -209 -64c-53.333 0 -107.333 7 -162 21c-1.33301 1.33301 -30.666 10 -87.999 26
c-71.333 20.667 -149.333 58.334 -234 113.001c-78.667 52 -145.334 107.333 -200.001 166c-20.667 21.333 -31 44.333 -31 69c0 20.667 7.66699 38.667 23 54c9.33301 6.66699 17.333 10 24 10c18 0 40 -15.667 66 -47c42 -50.667 89.667 -92.334 143 -125.001
c45.333 -27.333 103.166 -52 173.499 -74s129.833 -33 178.5 -33c34.667 0 71.667 5 111 15c120 28.667 180 120 180 274v49c-2.66699 14 -4 23.667 -4 29c-8 65.333 -22.333 128.666 -43 189.999c-38 114.667 -87.667 172 -149 172c-34.667 0 -64.5 -10.833 -89.5 -32.5
s-37.5 -49.5 -37.5 -83.5c0 -11.333 21.5 -24.5 64.5 -39.5s64.5 -35.5 64.5 -61.5c0 -43.333 -22.667 -85 -68 -125c-36.667 -32.667 -73.667 -49 -111 -49c-48.667 0 -91 22.667 -127 68c-32.667 40.667 -49 86.334 -49 137.001c0 68 28.667 132.333 86 193
c-48.667 16 -133.334 24 -254.001 24c-130.667 0 -208.334 -4 -233.001 -12c-4 1.33301 -7.33301 2 -10 2c-18 8 -27 27.667 -27 59c0 18 5.33301 39.333 16 64c1.33301 4 4.33301 8.66699 9 14c20 4 48.667 6 86 6c159.333 0 319 -28 479 -84c42 27.333 97.333 41 166 41
c72 0 131.333 -11.667 178 -35c50.667 32 132.667 48 246 48c48.667 0 90.334 -3.66699 125.001 -11c0 31.333 4.33301 52.166 13 62.499s28 15.5 58 15.5c27.333 0 54 -4.66699 80 -14c4 -8.66699 6 -15.667 6 -21c-4 -9.33301 -6.66699 -18.666 -8 -27.999
c12.667 0 31.167 0.666992 55.5 2s42.833 2 55.5 2c36.667 0 65.334 -2 86.001 -6c-1.33301 21.333 -2 35.666 -2 42.999c0 6.66699 0.666992 12.667 2 18c31.333 6.66699 63.333 10 96 10c52 0 76 -13 72 -39l-9 -30c16.667 0 40 4 70 12s53.333 12 70 12
c16 0 25.333 -21 28 -63zM1266 414.003c0 14.667 -1.33301 135.999 -4 363.999l-4 342c-126 0 -221 -9.33301 -285 -28c24.667 -32 41.667 -56 51 -72c65.333 -108 98 -228.333 98 -361c0 -81.333 -7.33301 -146.666 -22 -195.999c38 -6.66699 93.333 -23 166 -49z" />
    <glyph glyph-name="bn_i" unicode="&#x987;" horiz-adv-x="1038" 
d="M1092 1171c0 -32.667 -4.66992 -53.6699 -14.0029 -63.0029c-3.33301 -2.66699 -9 -4.66699 -17 -6c-66.667 8 -109 12 -127 12c-60 0 -111.667 -11 -155 -33c32.667 -40.667 60 -78.667 82 -114c42 -68.667 63 -147.334 63 -236.001
c0 -178.667 -157.667 -296.667 -473 -354c18 -26 52.667 -57.333 104 -94l121 -86l307 -238c20.667 -19.333 35 -33.666 43 -42.999l21 -57c-8 -4 -18.333 -6 -31 -6c-23.333 0 -54.666 10.667 -93.999 32c-16.667 10 -33 21 -49 33c-116 72.667 -250 149 -402 229l-178 95
c-53.333 30 -95 50.333 -125 61c-8 8 -22.333 24.333 -43 49c-28.667 36 -43 71 -43 105c0 12 2.66699 23.667 8 35l46 94c10.667 2.66699 19.334 4 26.001 4c28.667 0 71.667 -9.66699 129 -29c71.333 6.66699 117.666 11.334 138.999 14.001c52 6 97.333 15 136 27l145 43
c45.333 14 68 38 68 72c0 57.333 -38.333 128.333 -115 213c-70 78 -135.667 122.333 -197 133c-27.333 4 -45 6 -53 6c-30 0 -45 -7.33301 -45 -22c0 -4.66699 1.33301 -9.33398 4 -14.001s22.334 -26.667 59.001 -66c23.333 -24.667 35 -48 35 -70
c0 -46.667 -34.667 -82 -104 -106c-45.333 -16.667 -85 -25 -119 -25c-28.667 0 -60 20.333 -94 61c-31.333 37.333 -49.666 71.666 -54.999 102.999c-7.33301 31.333 -1 67.833 19 109.5s45 67.834 75 78.501c-20.667 6.66699 -35 10 -43 10
c-23.333 0 -61.666 -4.66699 -114.999 -14c-30 -9.33301 -52.667 -12 -68 -8c-13.333 40.667 -20 65.334 -20 74.001c0 12 5.33301 29 16 51c1.33301 2.66699 4.33301 6.66699 9 12c117.333 0 218.333 -15.667 303 -47c36.667 22 84.334 33 143.001 33
c80.667 0 162.667 -19.333 246 -58c22 11.333 45.833 34 71.5 68s36.5 62 32.5 84c-14.667 83.333 -87.667 125 -219 125c-8 0 -19.833 -0.666992 -35.5 -2s-27.834 -2 -36.501 -2h-16c-14.667 0 -36 3 -64 9s-49 9 -63 9c-31.333 0 -79 -7.33301 -143 -22
c-7.33301 1.33301 -14.333 2 -21 2h-16c-6.66699 0 -17.5 -0.666992 -32.5 -2s-26.167 -2 -33.5 -2c-18.667 0 -28 12.333 -28 37c0 25.333 14.333 43 43 53c92.667 18.667 191.667 35.667 297 51c38 5.33301 76.667 8 116 8c120.667 0 213 -27.333 277 -82
c44.667 -38 67 -78.333 67 -121c0 -88.667 -3.33301 -148.667 -10 -180c53.333 20.667 106.666 33.667 159.999 39c12 1.33301 33 2 63 2c2.66699 -1.33301 5 -2.66602 7 -3.99902c10.667 -13.333 16 -36.666 16 -69.999z" />
    <glyph glyph-name="bn_ii" unicode="&#x988;" horiz-adv-x="1142" 
d="M1188 1171c0 -22.667 -4.66797 -40.9961 -14.001 -54.9961c-2.66699 -4 -8.33398 -8.66699 -17.001 -14c-23.333 0 -43.666 0.666992 -60.999 2c-87.333 6.66699 -141.333 10 -162 10c-99.333 0 -182 -17 -248 -51c12.667 -46.667 19 -84.334 19 -113.001v-28
c0 2.66699 -7 -44 -21 -140c113.333 113.333 217 185.666 311 216.999c18 -1.33301 56.333 -27 115 -77c-40.667 -97.333 -66.667 -180.666 -78 -249.999c-18.667 -120 -28 -239 -28 -357c0 -30 -0.666992 -58.667 -2 -86l-4 -86c0 -22.667 2 -36.334 6 -41.001
c10.667 -20 18.667 -37 24 -51c16.667 -40.667 25 -76 25 -106c0 -56 -24.667 -84 -74 -84c-22 0 -35.667 18.333 -41 55c-1.33301 5.33301 -2.66602 23.666 -3.99902 54.999c-10.667 22 -21.667 80.667 -33 176c-5.33301 56 -10.666 98.333 -15.999 127
c-28.667 170.667 -43 306.667 -43 408c-20.667 -6.66699 -54 -33.334 -100 -80.001c-138 -138 -213.333 -211.667 -226 -221c-95.333 -75.333 -179.333 -113 -252 -113c-42 0 -76 14.333 -102 43c-5.33301 5.33301 -25.666 37.666 -60.999 96.999
c-22 32.667 -33 58.334 -33 77.001c17.333 18 28.333 28.333 33 31c17.333 12.667 30.666 14.667 39.999 6c34.667 -27.333 69.667 -41 105 -41c48 0 96.333 21.333 145 64c44 36.667 78.333 78.834 103 126.501s45.667 110.5 63 188.5c14 60 21 100.333 21 121
c0 58.667 -39.667 88 -119 88c-44 0 -95.333 -9 -154 -27c-10.667 -10.667 -16 -19.334 -16 -26.001l39 -46c26 -30.667 41 -53.667 45 -69c8 -27.333 -12.5 -59.333 -61.5 -96s-88.5 -55 -118.5 -55s-59.333 23.667 -88 71c-24.667 40 -39 77.667 -43 113
c-4.66699 27.333 4 58.666 26 93.999c10 15.333 24.333 36 43 62c-22 18.667 -52 28 -90 28c-16 0 -38.333 -4 -67 -12c-6 8 -9.66699 14 -11 18c-8 16.667 -10.667 32.334 -8 47.001c4 23.333 8.66699 42 14 56c1.33301 5.33301 5 11.333 11 18c64 0 138.333 -21 223 -63
c5.33301 -2.66699 12.666 -7.66699 21.999 -15c19.333 22 59 40.667 119 56c49.333 12 94.333 18 135 18c46.667 0 78.334 -8 95.001 -24c13.333 -11.333 27 -21 41 -29c4 -1.33301 9.33301 -4 16 -8c35.333 0 85.666 12.333 150.999 37c14 31.333 21 57 21 77
c0 30 -8.5 60.833 -25.5 92.5s-38.5 52.167 -64.5 61.5c-30 10.667 -66.333 16 -109 16h-37c-14.667 -1.33301 -26 -2 -34 -2c12 0 -23.667 0.666992 -107 2s-183 7 -299 17c-31.333 5.33301 -51.666 11.333 -60.999 18c-16.667 9.33301 -25 27.666 -25 54.999
c0 16.667 8.33301 29.667 25 39c48.667 -16 95.667 -24 141 -24c6.66699 0 75.667 7.33301 207 22c70.667 8.66699 145.667 13 225 13c45.333 0 79.666 -2.33301 102.999 -7c138.667 -24 208 -90.667 208 -200c0 -57.333 -13.667 -112 -41 -164l107 12
c48 5.33301 79.333 8 94 8c18 0 40.667 -4 68 -12c6.66699 -27.333 10 -50.666 10 -69.999z" />
    <glyph glyph-name="bn_u" unicode="&#x989;" horiz-adv-x="1101" 
d="M1156 1184c0 -27.333 -6.99805 -48.6611 -20.998 -63.9941c-4 -4 -10.667 -8.66699 -20 -14c-32.667 9.33301 -82 20.333 -148 33l-71 6c-32 2.66699 -50.667 4 -56 4c-70.667 0 -128 -26.667 -172 -80c-26 -43.333 -45.667 -81 -59 -113c-40 -86 -60 -152 -60 -198
c0 -24.667 5.66699 -42.334 17 -53.001c32.667 0 86 21.667 160 65c30 18 62.667 40 98 66c-5.33301 21.333 12.334 32 53.001 32c22 0 47.333 -3.33301 76 -10c36.667 -8 57.667 -18.333 63 -31c15.333 -80 23 -177.333 23 -292c0 -131.333 -13 -232 -39 -302
c-42 -113.333 -140.333 -170 -295 -170c-82 0 -186.333 28 -313 84c-144.667 63.333 -222 130.333 -232 201l-41 49c-61.333 80.667 -92 140 -92 178c0 37.333 19.333 56 58 56c110 -234.667 240.333 -360.334 391 -377.001c9.33301 0 23.5 -0.666992 42.5 -2
s33.5 -2 43.5 -2c162 0 254.667 30 278 90c16.667 42 25 87.667 25 137c0 46.667 -9.66699 102.667 -29 168c-106.667 -60 -169.334 -94 -188.001 -102c-48 -20.667 -81 -28.334 -99 -23.001c-43.333 18 -74 38 -92 60c-2.66699 2.66699 -17 23.667 -43 63
c-1.33301 8 -2 22.333 -2 43c0 64 11 150 33 258c8 42.667 19.667 89.667 35 141c-34 32 -96.333 48 -187 48c-96.667 0 -163.334 -6.33301 -200.001 -19c-24.667 -8 -46 -12 -64 -12c-12 0 -22 0.666992 -30 2c-16.667 49.333 -25 73.333 -25 72c0 13.333 5.33301 31 16 53
l9 16c61.333 10 120 15 176 15c163.333 0 276 -20 338 -60c47.333 15.333 119.666 34.333 216.999 57c10.667 16.667 16 36 16 58c0 36.667 -5.83301 65 -17.5 85s-33.834 38 -66.501 54c-48 24.667 -95 37 -141 37h-283c-4 2.66699 -13.333 4 -28 4h-33
c-67.333 0 -105.666 8.33301 -114.999 25c-6.66699 13.333 7 27.666 41 42.999c8 4 25.667 10 53 18l324 12c40.667 1.33301 91 3.33301 151 6c28.667 2 54.667 -1.33301 78 -10c120 -40.667 180 -103.334 180 -188.001c0 -28.667 -15 -79.334 -45 -152.001l123 4
c66 2.66699 118 -1.33301 156 -12c22 -18 33 -37 33 -57z" />
    <glyph glyph-name="bn_uu" unicode="&#x98a;" horiz-adv-x="1126" 
d="M1165 1182c0 -27.333 -4.66211 -48.0049 -13.9951 -62.0049c-2.66699 -4 -8 -8.66699 -16 -14c-37.333 9.33301 -93.333 21 -168 35l-117 10c-65.333 0 -119.333 -27.333 -162 -82c-18.667 -36.667 -33 -66.667 -43 -90c-30 -72.667 -45 -132.667 -45 -180
c0 -34 6.33301 -60 19 -78c13.333 -9.33301 91 33 233 127c-1.33301 2.66699 -2 5.33398 -2 8.00098c0 12 15.667 18 47 18c22 0 48.667 -3.33301 80 -10c39.333 -8 62 -18 68 -30c13.333 -59.333 20 -152.333 20 -279c0 -139.333 -13.667 -245 -41 -317
c-43.333 -116.667 -144.333 -175 -303 -175c-200.667 0 -382.334 92.333 -545.001 277c-32.667 46.667 -56.334 83 -71.001 109c-46.667 82.667 -66.667 143.334 -60 182.001c4 18.667 9.33301 28 16 28c7.33301 0 33.833 -43 79.5 -129s78.167 -130.333 97.5 -133
c2.66699 22 -6.33301 56.333 -27 103c-46.667 106 -70 179.667 -70 221c0 26 5 49.333 15 70c5.33301 14.667 12 22 20 22c11.333 0 29.666 -47 54.999 -141c34.667 -127.333 65.667 -217 93 -269c50 -98 111.333 -151.667 184 -161c31.333 -4 64 -6 98 -6
c153.333 0 236.666 30.667 249.999 92c11.333 48.667 17 106.667 17 174c0 58.667 -5.66699 106.334 -17 143.001c-62.667 -35.333 -112.334 -62 -149.001 -80c-71.333 -34 -118 -49.667 -140 -47c-38 9.33301 -68 29.333 -90 60c-10.667 14.667 -25 36.334 -43 65.001
c-1.33301 8 -2 17.667 -2 29v22c0 67.333 11 152.666 33 255.999c8 42.667 19.667 87.667 35 135c-34 32 -104.333 48 -211 48c-15.333 0 -38.333 -1.16699 -69 -3.5s-53.834 -3.5 -69.501 -3.5s-39.5 -4 -71.5 -12s-55.667 -12 -71 -12c-12 0 -22 0.666992 -30 2
c-15.333 30 -23 54.667 -23 74c0 12 5.33301 29.667 16 53c1.33301 2.66699 4.33301 7.33398 9 14.001c28.667 4 60 6.66699 94 8l57 2c110.667 4.66699 206.334 0 287.001 -14c48 -8 86.333 -21.667 115 -41c84.667 18 157 37 217 57c10.667 16.667 16 40 16 70v27
c-2.66699 12 -4 20.667 -4 26c-4 40 -32.667 73 -86 99c-45.333 21.333 -90.333 32 -135 32h-283c-4 3.33301 -13.667 5 -29 5h-32c-67.333 0 -105.666 8 -114.999 24c-6.66699 14 7 28.333 41 43c8 4 25.667 10.333 53 19c53.333 0 97 2.66699 131 8
c86 13.333 143.333 20 172 20c126 0 209.333 -6.66699 250 -20c120 -41.333 180 -104.333 180 -189c0 -28.667 -15 -86 -45 -172h170c5.33301 0 23.333 0.666992 54 2c13.333 0 32.333 -2.66699 57 -8c5.33301 -8 8.66602 -14 9.99902 -18
c6.66699 -15.333 10 -29.666 10 -42.999z" />
    <glyph glyph-name="bn_ri" unicode="&#x98b;" horiz-adv-x="1363" 
d="M1444 1223c0 -18 -8.33105 -43.333 -24.998 -76c-5.33301 -11.333 -14 -26.333 -26 -45c-28.667 9.33301 -50 14 -64 14c-26 0 -49.333 -8 -70 -24c-4 -62 -7.33301 -126.333 -10 -193c-8 -176 -12 -292.667 -12 -350c0 -60 8 -141.333 24 -244l25 -133l18 -55
c12.667 -38.667 17.667 -64 15 -76c-4 -14 -44.333 -21 -121 -21c-23.333 0 -37.666 1.66699 -42.999 5c-9.33301 8 -18.333 32.333 -27 73c-8 37.333 -11.333 64.666 -10 81.999c-22 16.667 -59.667 34.334 -113 53.001l-120 46c-1.33301 -6 -2 -14.333 -2 -25
c0 -23.333 4 -47.333 12 -72c2.66699 -5.33301 7.33398 -17 14.001 -35l29 -73c0 -52 -37.667 -78 -113 -78c-23.333 0 -40.333 2.66699 -51 8c-1.33301 16.667 -4 29 -8 37c-26 56 -95.667 97 -209 123c-88.667 20.667 -178 31 -268 31h-25
c-6.66699 0 -15.834 -0.833008 -27.501 -2.5s-20.834 -2.5 -27.501 -2.5c-87.333 0 -131 32.333 -131 97c0 39.333 17.667 91 53 155l43 56c62.667 77.333 131.667 150.333 207 219l217 201c-2.66699 14.667 -6 34.334 -10 59.001c-11.333 42 -27 67.333 -47 76
c-12.667 -40 -41.167 -82.833 -85.5 -128.5s-85.5 -73.834 -123.5 -84.501c-14 -4 -30.333 -6 -49 -6c-40 0 -81.833 12.167 -125.5 36.5s-75.834 53.5 -96.501 87.5c-9.33301 16.667 -14 44 -14 82c0 130 48.333 195 145 195c37.333 0 66.666 -20.333 87.999 -61
c18 -34.667 23 -60 15 -76c-1.33301 -2.66699 -9 -15 -23 -37c-21.333 -35.333 -32 -58 -32 -68c0 -6.66699 3.33301 -10 10 -10c30 0 68 27.333 114 82c14 20.667 30.667 48 50 82c16 28.667 33.667 47 53 55c24.667 6.66699 49.334 13 74.001 19
c30 -12.667 66 -44.334 108 -95.001c9.33301 -12 29.333 -35 60 -69l24 172c32.667 22 62.667 33 90 33c70 0 101.333 -18 94 -54c-32.667 -163.333 -49 -385.666 -49 -666.999v-90c24.667 -46.667 71.334 -79.667 140.001 -99c20 -5.33301 51.333 -10.666 94 -15.999
c-4 24.667 -7.66699 58.667 -11 102c-6.66699 90 -10 153 -10 189c0 146 2.66699 298.667 8 458c1.33301 53.333 3 86.333 5 99c4 48.667 10.333 78.167 19 88.5s31.667 18.166 69 23.499c9.33301 1.33301 16.666 2 21.999 2c45.333 0 68 -15.667 68 -47c0 -8 -2 -18 -6 -30
c27.333 9.33301 47.666 16 60.999 20c27.333 8 50 12 68 12c32.667 0 49 -10 49 -30zM737.002 238l-8 104c-5.33301 80.667 -8 145.667 -8 195c0 98 1.33301 188 4 270l-76 -62c-91.333 -73.333 -172 -163.333 -242 -270l-71 -110l80 -17
c46 -10.667 94.333 -24.334 145 -41.001c16.667 -5.33301 53 -19 109 -41c12 -5.33301 34.333 -14.666 67 -27.999z" />
    <glyph glyph-name="bn_li" unicode="&#x98c;" horiz-adv-x="1101" 
d="M1028 487c0 -9.33301 0.666016 -23.8359 1.99902 -43.5029s2 -34.5 2 -44.5c0 -116 -68.333 -218.333 -205 -307c-69.333 -44.667 -136.666 -67 -201.999 -67c-32 0 -54 4.66699 -66 14c-6.66699 5.33301 -22.334 25 -47.001 59l-45 66c72 86 105.333 148 100 186
c-4 30 -43 55.333 -117 76c-58.667 16.667 -109 25 -151 25c-15.333 0 -23 -3.66699 -23 -11c0 -5.33301 22 -25.666 66 -60.999c10.667 -9.33301 16 -27.666 16 -54.999c0 -28.667 -8 -66.334 -24 -113.001c-50.667 -68 -102 -98 -154 -90
c-24.667 4 -46.334 35.333 -65.001 94c-16.667 49.333 -25 89.666 -25 120.999c0 17.333 1.33301 29.666 4 36.999c1.33301 4 -6.16699 11.167 -22.5 21.5s-23.833 19.5 -22.5 27.5c10.667 32.667 40 64 88 94c10.667 -6.66699 28.334 -15.667 53.001 -27
c68.667 62 140.334 93 215.001 93c54.667 0 105.334 -8.33301 152.001 -25c60 -20.667 97 -52 111 -94c6.66699 -22 10 -52 10 -90c0 -37.333 -4.33301 -76.333 -13 -117c-1.33301 -6.66699 -5.33301 -23.667 -12 -51c44 0 84.667 5.16699 122 15.5s63.166 24.333 77.499 42
s21.5 46.834 21.5 87.501c0 126 -53.667 229 -161 309c-10 8.66699 -39.333 30.667 -88 66l-355 236c-66.667 44.667 -111.667 79.334 -135 104.001c-8 10.667 -12 24.334 -12 41.001c0 19.333 4.66699 39.666 14 60.999c10.667 27.333 23.667 42.333 39 45
c20.667 4.66699 59 -4.66602 115 -27.999c17.333 -6.66699 26 -30.667 26 -72c-1.33301 -46.667 3.16699 -75.667 13.5 -87s46.833 -32.666 109.5 -63.999l264 -134c216 -108.667 324 -222 324 -340z" />
    <glyph glyph-name="bn_e" unicode="&#x98f;" horiz-adv-x="1175" 
d="M1135 102c-4.66699 -28.667 -8.33496 -45.6689 -11.002 -51.002c-9.33301 -24.667 -46.666 -37 -111.999 -37c-31.333 0 -53.333 2 -66 6c0 44 -15 85 -45 123c-12 15.333 -34.333 23 -67 23c-48 0 -125 -16.667 -231 -50s-193.667 -50 -263 -50
c-64 0 -135 54.333 -213 163c-34 49.333 -61.333 93 -82 131c-1.33301 15.333 -2 27 -2 35c0 48 10.333 78 31 90c10.667 7.33301 21.334 11 32.001 11c18 0 35.333 -8.33301 52 -25c4 -22 8.66699 -39.667 14 -53c44 -109.333 126.667 -164 248 -164
c35.333 0 75.666 4 120.999 12c83.333 15.333 149.333 23 198 23c20.667 0 77.334 -9 170.001 -27c-4 30 -7.33301 72.333 -10 127c-6.66699 110.667 -10 183 -10 217c0 60 2.66699 124.333 8 193c10.667 136.667 14.667 206.334 12 209.001c-4 6.66699 -26.333 10 -67 10
c-57.333 0 -116.666 -20 -177.999 -60c-22 -13.333 -49.333 -35 -82 -65c-12.667 -10.667 -19 -19.667 -19 -27c0 -1.33301 33.167 -13.5 99.5 -36.5s100.833 -42.833 103.5 -59.5c5.33301 -28.667 -11.834 -62.5 -51.501 -101.5s-74.5 -58.5 -104.5 -58.5
c-43.333 0 -76 8.33301 -98 25l-82 90c-22 24.667 -33 53.334 -33 86.001c0 44 22 102.667 66 176c10.667 19.333 42 49.333 94 90c46.667 38.667 83.667 64.667 111 78c106 57.333 185 86 237 86c74 0 132.667 -27.333 176 -82c6 -5.33301 9 -21 9 -47
c0 -48 -7.66699 -120 -23 -216s-23 -168 -23 -216c0 -74 6.33301 -171 19 -291c4 -31.333 10 -87.333 18 -168c40 -49.333 58 -89 54 -119z" />
    <glyph glyph-name="bn_ai" unicode="&#x990;" horiz-adv-x="1335" 
d="M1304 1071c0 -108 -24.0049 -192.001 -72.0049 -252.001c-65.333 -82 -135 -135.333 -209 -160c0 -69.333 6.33301 -159.333 19 -270c2.66699 -27.333 8.66699 -76.333 18 -147c11.333 -18 20.333 -33.667 27 -47c17.333 -36 23.333 -65.667 18 -89
c-5.33301 -24 -8.66602 -36.667 -9.99902 -38c-9.33301 -22 -35.333 -33 -78 -33c-31.333 0 -53.666 3.33301 -66.999 10c-4.66699 10.667 -11 24.334 -19 41.001c-14.667 30 -35.667 60 -63 90c-15.333 16.667 -40.666 25 -75.999 25c-45.333 0 -103.333 -13.667 -174 -41
c-106.667 -41.333 -201.667 -62 -285 -62c-95.333 0 -173.666 43.667 -234.999 131c-12.667 18 -21 32.333 -25 43l-37 101c-5.33301 10.667 -8 27.667 -8 51c0 46.667 17 70 51 70c12.667 0 25 -5.66699 37 -17c4 -2.66699 8.66699 -8.66699 14 -18
c7.33301 -49.333 37.666 -102.666 90.999 -159.999c17.333 -19.333 61 -29 131 -29c39.333 0 96.833 6.83301 172.5 20.5s132.834 20.5 171.501 20.5c17.333 0 81.333 -9.33301 192 -28c-4 27.333 -7.33301 62.666 -10 105.999c-6.66699 91.333 -10 157 -10 197
c0 48.667 3.33301 135.334 10 260.001c2.66699 60 6 107 10 141c-32.667 32.667 -57.334 47.667 -74.001 45c-120 -14.667 -204.667 -68 -254 -160c-6.66699 -12 -10 -21.333 -10 -28c0 -10 15 -16.333 45 -19c44 -4 73.333 -8.66699 88 -14
c34.667 -10.667 55.334 -31 62.001 -61c2.66699 -12.667 4 -23 4 -31c0 -36.667 -17.167 -67.334 -51.5 -92.001s-70.5 -37 -108.5 -37c-43.333 0 -76 8 -98 24l-82 91c-22 24 -33 52.667 -33 86c0 43.333 22 102 66 176c10.667 18.667 42 48.667 94 90
c46.667 38 83.334 64 110.001 78c106.667 57.333 186 86 238 86c74 0 132.667 -27.333 176 -82c2.66699 -2.66699 4 -13 4 -31c0 -34 -3.33301 -75 -10 -123l-16 -115c65.333 0 115 51.333 149 154c14 40.667 21 74 21 100c0 53.333 -19.333 92.333 -58 117
c-27.333 16.667 -71 28.334 -131 35.001c-48.667 5.33301 -94.334 8 -137.001 8c-16.667 0 -41.667 -1.33301 -75 -4s-58 -4 -74 -4h-23c-46.667 0 -111.667 15.667 -195 47c-25.333 9.33301 -59.333 30.333 -102 63c-66.667 50.667 -100 89.667 -100 117
c0 26 13 40.333 39 43c10.667 0 21.334 -0.666992 32.001 -2c68.667 -68 126 -106 172 -114c63.333 -11.333 156.333 -17 279 -17c28.667 0 52.667 0.666992 72 2l116 8c87.333 7.33301 157 -23.334 209 -92.001c44 -56 67.333 -107 70 -153c1.33301 -19.333 2 -55 2 -107z
" />
    <glyph glyph-name="bn_o" unicode="&#x993;" horiz-adv-x="1044" 
d="M1007 418c0 -80.667 -15.6689 -155.666 -47.002 -224.999c-49.333 -109.333 -125.333 -164 -228 -164c-88.667 0 -177.334 12.333 -266.001 37c-99.333 26.667 -179.666 64.667 -240.999 114c-38.667 31.333 -78.334 71 -119.001 119
c-15.333 18 -31.666 38.333 -48.999 61c-1.33301 4.66699 -4.33301 12.334 -9 23.001c-12 39.333 -18 68.666 -18 87.999c0 15.333 3.33301 27.666 10 36.999c18 19.333 33.667 29 47 29c7.33301 0 19 -4.33301 35 -13c22 -69.333 35 -109.666 39 -120.999
c19.333 -46 43.333 -79.333 72 -100c72 -52 184 -93 336 -123c27.333 -5.33301 51 -8 71 -8c60 0 106.667 26 140 78c28.667 44.667 43 98.667 43 162c0 61.333 -24 98.666 -72 111.999c-8 2.66699 -23.667 7 -47 13c-15.333 -4.66699 -41.333 -19.667 -78 -45
c-27.333 -19.333 -61.333 -29 -102 -29c-22 0 -50 24 -84 72c-22 30 -33 55.667 -33 77c0 36 17 60 51 72c46.667 18 94.334 27 143.001 27h23c5.33301 0 10 -0.666992 14 -2c22 9.33301 37.667 17.333 47 24c49.333 35.333 74 73 74 113c0 30 -19.667 70.333 -59 121
c-54.667 68 -112 102 -172 102c-23.333 0 -50.666 -8.33301 -81.999 -25c-37.333 -17.333 -55.333 -36.333 -54 -57c0 -14.667 15.167 -35 45.5 -61s45.5 -44 45.5 -54c0 -13.333 -9.33301 -28.833 -28 -46.5s-36.167 -30.334 -52.5 -38.001s-31.166 -11.5 -44.499 -11.5
c-8.66699 0 -20.167 1.33301 -34.5 4s-25.5 4 -33.5 4c-54.667 6 -82 60 -82 162c0 62.667 38.333 123.334 115 182.001c68 52 136.333 83 205 93c18.667 2.66699 35 4 49 4c83.333 0 158.666 -35.833 225.999 -107.5s101 -149.167 101 -232.5
c0 -32.667 -10.667 -77.667 -32 -135c-8.66699 -23.333 -19.667 -48 -33 -74c23.333 -4 40.333 -8.66699 51 -14c78 -38.667 117 -120 117 -244z" />
    <glyph glyph-name="bn_au" unicode="&#x994;" horiz-adv-x="1183" 
d="M1146 1057c0 -198 -102.331 -324.999 -306.998 -380.999c23.333 -4 40.333 -8.66699 51 -14c78 -38.667 117 -120 117 -244c0 -80.667 -15.667 -155.667 -47 -225c-49.333 -109.333 -125.333 -164 -228 -164c-88.667 0 -177.334 12.333 -266.001 37
c-101.333 26.667 -182 64.667 -242 114c-38 31.333 -80.333 76.333 -127 135l-57 78c8 102.667 26.333 154 55 154l37 -25c8 -8 16.333 -21.667 25 -41c32.667 -73.333 56.334 -124.333 71.001 -153c24.667 -46.667 67 -80.334 127 -101.001
c15.333 -5.33301 70.666 -16.666 165.999 -33.999c36 -7.33301 71 -11 105 -11c82 0 137.333 31.333 166 94c20 42.667 30 111.667 30 207c0 30 -8.66699 51.333 -26 64l-60 22c-10.667 -2.66699 -33 -25.667 -67 -69c-30 -38.667 -66.333 -58 -109 -58
c-24.667 0 -56 26 -94 78c-23.333 31.333 -35 59.333 -35 84c0 9.33301 2 19.666 6 30.999c24.667 44.667 61 70 109 76c12 1.33301 25.667 2 41 2c23.333 0 40.333 -1.33301 51 -4c22 4 38.333 8.66699 49 14c36.667 19.333 61.334 48.666 74.001 87.999
c8 28.667 -11.667 76.334 -59 143.001c-54.667 76.667 -113.667 115 -177 115c-35.333 0 -72.666 -15 -111.999 -45c-22 -16.667 -29 -29 -21 -37l62 -41c28.667 -18.667 43 -37 43 -55s-35 -53.667 -105 -107c-24.667 -18.667 -50.667 -26 -78 -22
c-36.667 5.33301 -64.667 29.333 -84 72c-14.667 32.667 -22 70 -22 112c0 62.667 36 123.334 108 182.001c66 54.667 132.333 87 199 97c19.333 2.66699 37 4 53 4c74 0 147.5 -35.167 220.5 -105.5s109.5 -142.5 109.5 -216.5c0 -28.667 -6 -59.334 -18 -92.001h24
c53.333 30 82 62.667 86 98c0 7.33301 0.666992 18.5 2 33.5s2 25.833 2 32.5c0 176 -64 282.333 -192 319c-65.333 19.333 -151.333 29 -258 29c-40 0 -104.333 19.667 -193 59c-94 42.667 -141 79.667 -141 111c0 22 27.333 44.667 82 68
c5.33301 2.66699 15.666 6.66699 30.999 12c57.333 -36.667 103.666 -70.667 138.999 -102c20.667 -18 44 -30.333 70 -37c5.33301 -1.33301 12.666 -2 21.999 -2h100c113.333 0 195.333 -11.667 246 -35c164 -75.333 246 -190 246 -344z" />
    <glyph glyph-name="bn_ka" unicode="&#x995;" horiz-adv-x="1413" 
d="M1455 1159c0 -28.667 -8.33203 -46.3311 -24.999 -52.998c-9.33301 1.33301 -17.333 2 -24 2c-48 6.66699 -120.333 15.667 -217 27h-33c-49.333 0 -87.666 -3 -114.999 -9c12.667 -4 27.667 -10.667 45 -20c83.333 -42.667 154.333 -102 213 -178
c62.667 -83.333 94 -168.666 94 -255.999c0 -58.667 -17 -111.334 -51 -158.001c-36.667 -50.667 -83.667 -79.334 -141 -86.001c-23.333 -2.66699 -37 -4 -41 -4h-23c-84.667 0 -131.667 22.667 -141 68l-8 40c0 23.333 11.667 52 35 86c30 44 58 66 84 66
c17.333 -2.66699 45.166 -17.334 83.499 -44.001l57.5 -40c9.33301 0 14 11 14 33c0 12 -0.666992 21.667 -2 29l-8 43c-4 17.333 -22.333 47.333 -55 90c-28.667 36.667 -53.334 64 -74.001 82c-38 34 -77.667 64.667 -119 92l-57 39c-8 -56 -14 -102 -18 -138
c-12.667 -106 -19 -198 -19 -276c0 -56 4 -129 12 -219c1.33301 -20.667 5.66602 -61 12.999 -121l57 -111c-4 -61.333 -41 -92 -111 -92c-17.333 0 -41 3.33301 -71 10c-4 0 -10.333 1.66699 -19 5c4 9.33301 6 17.333 6 24c0 38 -29.333 76.333 -88 115
c-83.333 53.333 -202.666 80 -357.999 80c-44 0 -91 -3.66699 -141 -11c-32.667 23.333 -58.667 44 -78 62c-42.667 38 -64 68 -64 90c0 30 25.333 83.333 76 160c30 44.667 91.333 117 184 217c38.667 40.667 124.667 113 258 217l95 70l-131 16
c-100 10.667 -171 16 -213 16c-187.333 0 -299.333 -6 -336 -18c-22 8 -33 29.667 -33 65c0 18 4 43.333 12 76c52 5.33301 122.333 8 211 8h76c22 0 50.667 -2.66699 86 -8c180 0 320.667 -13.667 422 -41c24.667 11.333 50.667 17 78 17c26 0 52 -3.66699 78 -11
c4 0 9.33301 -2 16 -6c75.333 20.667 159.333 32.334 252 35.001c84.667 1.33301 168.667 3.33301 252 6c2.66699 -18.667 4 -47.334 4 -86.001zM795.001 1004c-151.333 -106.667 -257.667 -201 -319 -283c-36.667 -49.333 -71.667 -106.666 -105 -171.999
c-12 -24.667 -24.667 -53.334 -38 -86.001l79 -12c156 -26 277 -71.333 363 -136c-18 101.333 -27 197 -27 287c0 135.333 15.667 269.333 47 402z" />
    <glyph glyph-name="bn_kha" unicode="&#x996;" horiz-adv-x="1091" 
d="M1167 1186c-5.33301 -32.667 -10.6689 -54.666 -16.002 -65.999c-1.33301 -4 -4 -8.66699 -8 -14c-11.333 0 -27.166 0.666992 -47.499 2s-35.833 2 -46.5 2c-14 0 -28.333 -4.66699 -43 -14c-4 -2.66699 -10.333 -8.33398 -19 -17.001l-4 -346
c-1.33301 -61.333 0 -134.333 4 -219l8 -201c0 -20 2.16699 -53 6.5 -99s15.166 -75.667 32.499 -89c0 -56 -31.333 -88.667 -94 -98l-39 -7c-23.333 0 -38.333 7 -45 21c-1.33301 4 -2.66602 10.667 -3.99902 20c-52 38.667 -94.333 64.667 -127 78l-180 70l-307 88
c-63.333 19.333 -99 39 -107 59c-20.667 49.333 -31 89 -31 119c0 34 9 58.667 27 74c16.667 2.66699 30.334 4 41.001 4c14 0 30.333 -1.33301 49 -4c31.333 -4 100.333 34.833 207 116.5s167.334 139.834 182.001 174.501c5.33301 12 8 25.667 8 41
c0 17.333 -5.33301 35 -16 53c-4 6.66699 -24.333 30 -61 70l-121 -111c-54.667 -42.667 -104 -64 -148 -64c-10.667 -1.33301 -19.334 -2 -26.001 -2c-48 0 -85 18 -111 54c-2.66699 5.33301 -20.334 -0.333984 -53.001 -17.001l-49 -24
c-8.66699 6.66699 -16.334 28 -23.001 64s-8.66699 61 -6 75c24.667 0 48 4 70 12c-10 28.667 -15 72.334 -15 131.001c0 53.333 20 85 60 95c22 5.33301 54.667 9.33301 98 12c53.333 2.66699 80 -35.666 80 -114.999c0 -70.667 -10.333 -119 -31 -145
c-8 -11.333 -12 -19 -12 -23c8 -1.33301 17 -2 27 -2c18.667 8 42.334 25 71.001 51c36 32.667 79.667 109.334 131 230.001c8.66699 2.66699 26 4 52 4c69.333 0 106.666 -8.33301 111.999 -25c64 -192.667 96 -314.667 96 -366c0 -14 -0.666992 -23 -2 -27
c-9.33301 -120 -100.666 -234.667 -273.999 -344l-53 -29l88 -41c61.333 -28.667 104.333 -50.334 129 -65.001c46 -28.667 92.333 -55.334 139 -80.001c12 -5.33301 36.667 -18.333 74 -39l-4 442c-1.33301 165.333 1.33398 364.666 8.00098 597.999
c32.667 11.333 65.334 17 98.001 17c41.333 0 62 -13 62 -39l-4 -19c50 20.667 100.333 31 151 31c5.33301 -4 8.66602 -8 9.99902 -12c7.33301 -14 9.33301 -29 6 -45z" />
    <glyph glyph-name="bn_ga" unicode="&#x997;" horiz-adv-x="1052" 
d="M1098 1157c-7.33301 -38 -16.3359 -56.9971 -27.0029 -56.9971c-2.66699 0 -5.33398 0.666992 -8.00098 2c-12.667 4 -25.667 6 -39 6c-22 0 -46 -4.66699 -72 -14c-9.33301 -2.66699 -20.333 -8.33398 -33 -17.001c-1.33301 -44.667 -2.66602 -82 -3.99902 -112
c-9.33301 -212 -14 -352 -14 -420c0 -52 5.33301 -146.333 16 -283c1.33301 -27.333 7 -79.333 17 -156l24 -131c4.66699 -9.33301 7 -16.666 7 -21.999c0 -24.667 -26 -37 -78 -37c-34 0 -65.333 11 -94 33l-15 14c-8 259.333 -12 430 -12 512l2 320
c0 31.333 -21.833 83.166 -65.5 155.499s-79.5 116.666 -107.5 132.999s-57 24.5 -87 24.5c-67.333 0 -148 -41 -242 -123c-40.667 -35.333 -61 -63.333 -61 -84c0 -4 1.33301 -8 4 -12c94 40.667 175.333 61 244 61c76 0 129.667 -27.333 161 -82
c40 -68 60 -123.333 60 -166c0 -60 -71.667 -141.667 -215 -245c-93.333 -67.333 -161 -101 -203 -101c-53.333 0 -89.666 50.667 -108.999 152c-2.66699 13.333 48 45.333 152 96c50.667 22 100.334 44.667 149.001 68c75.333 36.667 113 68 113 94
c0 24.667 -23.333 37 -70 37c-22.667 0 -75 -11 -157 -33c-71.333 -19.333 -120.666 -29 -147.999 -29c-26 0 -44.333 4.33301 -55 13c-16.667 12 -39.334 50.667 -68.001 116c-2.66699 8.66699 -8.66699 24.667 -18 48c0 72 37.167 142.5 111.5 211.5
s147.833 103.5 220.5 103.5c106.667 0 193.334 -18.333 260.001 -55c22 -12.667 57.333 -38.667 106 -78c6 -4 15 -11.667 27 -23c0 -12 -1.33301 15.333 -4 82c-2.66699 31.333 0 54 8 68c9.33301 18.667 29 28 59 28c68.667 0 103 -5.33301 103 -16
c-9.33301 -20.667 -14 -36.334 -14 -47.001c32.667 16.667 68 29.667 106 39c10.667 2.66699 29.667 6.66699 57 12c11.333 -8 17 -23.667 17 -47c0 -10.667 -1.33301 -23.667 -4 -39z" />
    <glyph glyph-name="bn_gha" unicode="&#x998;" horiz-adv-x="1064" 
d="M1114 1239c8 -12 12.001 -25.668 12.001 -41.001c0 -22 -6 -43 -18 -63l-18 -31l-70 -2c-35.333 -1.33301 -58.666 -32.666 -69.999 -93.999c-14.667 -87.333 -22 -194 -22 -320v-90c0 -83.333 4 -185.666 12 -306.999c2.66699 -50.667 6 -90.334 10 -119.001l49 -49
c-13.333 -42.667 -39 -74 -77 -94c-12.667 -7.33301 -32.667 -11 -60 -11c-36.667 0 -57.667 2.33301 -63 7c-4 14.667 -15 35 -33 61c-61.333 48 -144 91 -248 129l-272 84c-15.333 4 -34 10.667 -56 20c-84.667 36 -127 83.333 -127 142c0 42 41 91.667 123 149l181 113
c18.667 12 56 37.333 112 76l-146.5 7c-69 3.33301 -112.167 9 -129.5 17c-28.667 14 -52 46.333 -70 97c-13.333 40.667 -20 81.334 -20 122.001v27c2.66699 12 4 21 4 27c-24.667 2.66699 -51.334 4 -80.001 4h-49c-20.667 13.333 -31 35.666 -31 66.999
c0 22 3.33301 42.667 10 62c0 4 2 8 6 12c19.333 -1.33301 35 -3.33301 47 -6c37.333 -8 75.666 -21 114.999 -39c34 39.333 143.333 59 328 59c194 0 337.333 -22.333 430 -67l29 -17c6.66699 6 19.667 15.667 39 29c42 30 84 45 126 45c15.333 0 24.333 -2 27 -6z
M827.001 1057c-32.667 30 -94.667 55.333 -186 76c-78 17.333 -145.667 26 -203 26c-46 0 -77.333 -5.33301 -94 -16c-43.333 -91.333 -65 -159 -65 -203c0 -27.333 10 -41 30 -41c28.667 0 72.334 9.83301 131.001 29.5s101.667 29.5 129 29.5
c14 -18.667 31.333 -56 52 -112c14.667 -41.333 22 -71.333 22 -90c0 -8.66699 -1.33301 -15 -4 -19c-60 -60 -127 -122.667 -201 -188l-94 -82c42.667 -19.333 128 -64.333 256 -135l174 -99c0 6 0.666992 65.667 2 179l2 170c1.33301 86 9.66602 188.333 24.999 307
c5.33301 42 13.333 98 24 168z" />
    <glyph glyph-name="bn_nga" unicode="&#x999;" horiz-adv-x="1036" 
d="M987 283c-19.333 -113.333 -75.333 -185.665 -168 -216.998c-48 -16.667 -98 -25 -150 -25c-80.667 0 -166.667 21.667 -258 65c-116 56 -215 138.667 -297 248c-24.667 32.667 -49 74.334 -73 125.001c-6 12.667 -9.66699 21 -11 25c-8 18.667 -12 37 -12 55
c0 23.333 9 37.666 27 42.999c18.667 5.33301 38.667 1.83301 60 -10.5s35.333 -27.833 42 -46.5l43 -113c30 -79.333 105 -148.333 225 -207c61.333 -30 105.666 -45 132.999 -45h74c71.333 0 121.333 15.667 150 47s43 83.333 43 156c0 35.333 -5.66699 82.333 -17 141
c-98 -77.333 -181.333 -116 -250 -116c-10.667 0 -20 2 -28 6c-53.333 26 -92.333 90.667 -117 194c-8 34 -15.667 84 -23 150c-76 0 -149.667 43 -221 129c-32.667 39.333 -70.667 119 -114 239c-8.66699 37.333 -13 66 -13 86c14 -6.66699 28.333 -12.667 43 -18
c53.333 -62.667 97.666 -130.334 132.999 -203.001c19.333 -39.333 42 -65.333 68 -78c5.33301 -2.66699 37.333 -10.667 96 -24c0 236 93.667 354 281 354c50.667 0 99 -13 145 -39c83.333 -46 125 -112 125 -198c0 -92 -45 -162.333 -135 -211
c-72 -38.667 -157.333 -58 -256 -58c2.66699 -18.667 5.33398 -33.667 8.00098 -45c16.667 -64 48 -96 94 -96c37.333 0 77.5 9.5 120.5 28.5s73.833 42.833 92.5 71.5c8.66699 2.66699 16.334 4 23.001 4c8 0 44.333 -13.667 109 -41c12 -24 18 -71.667 18 -143
c0 -114.667 -3.33301 -192.334 -10 -233.001zM661 1130c-23.333 0 -47.3311 -18.999 -71.998 -56.999l-43 -67c-14.667 -24.667 -21.334 -53.334 -20.001 -86.001c1.33301 -26 4 -41.167 8 -45.5s18.333 -6.5 43 -6.5c45.333 0 87.666 7 126.999 21
c53.333 17.333 80 40.333 80 69c0 20.667 -8.16699 46.667 -24.5 78s-33 54.833 -50 70.5s-33.167 23.5 -48.5 23.5z" />
    <glyph glyph-name="bn_ca" unicode="&#x99a;" horiz-adv-x="884" 
d="M905 1114l-12 -12.0059l-115 8c-25.333 1.33301 -74.333 6 -147 14c-64 7.33301 -113 11 -147 11c-67.333 0 -126.333 -6.33301 -177 -19c-16 -4 -35 -10 -57 -18l4 -146c16.667 8.66699 27.667 13 33 13c4 0 9.33301 -2.33301 16 -7c92 -96.667 185.667 -145 281 -145
c45.333 0 68 11.667 68 35h26c98.667 0 155.334 -15 170.001 -45c-18 -105.333 -37 -186 -57 -242c-34 -94 -88 -173.667 -162 -239c-50.667 -46.667 -131.334 -100.667 -242.001 -162c-121.333 -68.667 -209.333 -103 -264 -103c-8 -1.33301 -21 13.667 -39 45
c-5.33301 10 -12.666 27.333 -21.999 52c6.66699 9.33301 12 27.666 16 54.999c8 57.333 14.333 104.333 19 141c12 110.667 18 204.334 18 281.001c0 50.667 -3.33301 148.334 -10 293.001c-1.33301 42 -5 98.667 -11 170c-24 5.33301 -56.667 8 -98 8
c-32.667 14.667 -47.667 35.667 -45 63c0 28.667 5.33301 51.334 16 68.001c2 2.66699 5.66699 6.66699 11 12c35.333 0 70.666 -4.66699 105.999 -14c-4 20.667 7 32.334 33 35.001c13.333 1.33301 23 2 29 2h51c10.667 -2.66699 21 -4.66699 31 -6
c5.33301 -3.33301 8 -13.666 8 -30.999c46 6.66699 116.167 10.334 210.5 11.001s164.833 4.33398 211.5 11.001c9.33301 1.33301 18 2 26 2h21c24.667 0 80 -2 166 -6l49 -4c0 -6.66699 1 -16.167 3 -28.5s3 -21.833 3 -28.5c0 -31.333 -7 -56 -21 -74zM639 695.994
c-27.333 -13.333 -55.335 -19.999 -84.002 -19.999c-43.333 0 -91.666 15 -144.999 45c-9.33301 5.33301 -47 30.666 -113 75.999l-39 49l-16 -559c78 27.333 191.333 94 340 200c61.333 44 92 85.667 92 125c0 14 -3.33301 28.333 -10 43
c-1.33301 1.33301 -9.66602 15 -24.999 41z" />
    <glyph glyph-name="bn_cha" unicode="&#x99b;" horiz-adv-x="1044" 
d="M1058 -229l-37 -0.00488281l-615 249c-13.333 4.66699 -23.333 8.33398 -30 11.001c-46.667 20 -73.334 45 -80.001 75c-8 34.667 0 75.667 24 123c15.333 8.66699 39.333 15 72 19c90 12 155 23.667 195 35c174.667 48.667 262 122.334 262 221.001c0 34 -13 70 -39 108
c-28.667 44 -58.667 66 -90 66c-5.33301 0 -10.333 -0.666992 -15 -2c-77.333 -127.333 -151 -215.333 -221 -264c-90 -64.667 -197.667 -120.667 -323 -168c-7.33301 -1.33301 -17.666 -2 -30.999 -2c-57.333 0 -86 28 -86 84c0 10.667 0.666992 18 2 22
c27.333 146 41 262 41 348c0 66 -1.33301 131.667 -4 197l-8 194c-4.66699 10 -34.667 15 -90 15c-6 4 -9.66699 8 -11 12c-8 14 -12 30.333 -12 49c0 28.667 6 55.334 18 80.001c66 0 130.333 -15.667 193 -47c28.667 12 69.667 25.667 123 41
c28.667 1.33301 74.334 2.66602 137.001 3.99902c105.333 1.33301 218 -4 338 -16c78 0 172.333 6 283 18c9.33301 -9.33301 16 -16.666 20 -21.999c14 -19.333 21 -40.666 21 -63.999c0 -18 -9.66699 -34.333 -29 -49c-2.66699 -1.33301 -7.33398 -4 -14.001 -8l-209 12
c-33.333 1.33301 -95.666 6 -186.999 14c-82 7.33301 -144 11 -186 11c-75.333 0 -137.333 -10.333 -186 -31c-16.667 -6.66699 -34.667 -17.667 -54 -33v-45c72.667 -64 160.667 -101.667 264 -113c70 -8 118.667 -12.667 146 -14c23.333 5.33301 45.666 8 66.999 8
c32 0 59.333 -7.33301 82 -22c60.667 -40 110.667 -107 150 -201c24.667 -61.333 37 -118 37 -170c0 -39.333 -11.667 -83 -35 -131s-50 -85 -80 -111c-80.667 -69.333 -181.667 -119.666 -303 -150.999c8 -4 64 -40.333 168 -109c69.333 -43.333 127.333 -75.333 174 -96
l103.5 -45c9 -4 26.5 -12.333 52.5 -25c36.667 -17.333 55 -33 55 -47c0 -20 -17.667 -30 -53 -30zM566 753.995c-60 0 -122 15.668 -186 47.001c-18 9.33301 -69.333 40.666 -154 93.999v-59c0 -225.333 -6.66699 -370.333 -20 -435c50 19.333 93 43.333 129 72l100 80
c60 48 103.667 115 131 201z" />
    <glyph glyph-name="bn_ja" unicode="&#x99c;" horiz-adv-x="1441" 
d="M1458 1109c-6.66699 -0.666992 -15.3271 -1.00195 -25.9941 -1.00195c-16.667 0 -41.667 3 -75 9s-58.333 9 -75 9c-151.333 0 -323.333 -15.333 -516 -46c-10.667 -22 -25.667 -55 -45 -99c62.667 -28 135 -42 217 -42c114.667 0 210.334 21.333 287.001 64
c86 -19.333 132.333 -30 139 -32c27.333 -11.333 41 -25.666 41 -42.999c0 -4.66699 -7.5 -48 -22.5 -130s-23.167 -133.333 -24.5 -154c-10 -118.667 -15 -215.334 -15 -290.001c0 -20 -3 -50 -9 -90s-9 -70.333 -9 -91c0 -16 4 -50.333 12 -103c6 -34 9 -65.333 9 -94
c0 -44.667 -7 -67 -21 -67c-24.667 0 -46.334 35 -65.001 105c-12.667 48.667 -21.334 92.5 -26.001 131.5s-10.334 106.167 -17.001 201.5l-13 476c-204.667 0 -376.667 13 -516 39c-2.66699 -8 -6.66699 -21 -12 -39c-14 -43.333 -22.333 -75.333 -25 -96
c-2.66699 -22 18.666 -33 63.999 -33c24.667 0 60.667 6 108 18c54.667 12.667 84.667 27.334 90 44.001c4.66699 12.667 15.667 19 33 19c35.333 0 95.333 -19.667 180 -59c6 -39.333 9 -85.666 9 -138.999c0 -224 -74.667 -351.333 -224 -382
c-31.333 -6 -86.666 -9 -165.999 -9c-193.333 0 -380.333 55 -561 165c-114.667 70 -172 119.333 -172 148c0 12.667 9.66699 23.334 29 32.001c14.667 6.66699 61 -13 139 -59c57.333 -34.667 97 -56 119 -64c139.333 -52.667 263.666 -84.667 372.999 -96
c24.667 -2 43.667 -3 57 -3c140.667 0 211 63.333 211 190v46c-1.33301 40.667 -2 56 -2 46c-53.333 -19.333 -109.333 -29 -168 -29c-162.667 0 -252 59.667 -268 179c-2.66699 18.667 -4 37.667 -4 57c0 57.333 10 120.666 30 189.999c7.33301 23.333 18.333 53 33 89
c-58.667 25.333 -128.334 38 -209.001 38c-22 0 -61.667 0.666992 -119 2l-86 2c-47.333 1.33301 -100.333 -2 -159 -10c-20.667 0 -31 13 -31 39c1.33301 6 2 11.667 2 17c4 28 9.33301 50.333 16 67c1.33301 2.66699 4.33301 6.33398 9 11.001
c229.333 0 398.666 -8 507.999 -24c64 -10.667 129.333 -25 196 -43l203 27c147.333 19.333 284.666 35.333 411.999 48h69c41.333 0 74 -3 98 -9c11.333 -20.667 17 -43.334 17 -68.001c0 -33.333 -9.66699 -55 -29 -65z" />
    <glyph glyph-name="bn_jha" unicode="&#x99d;" horiz-adv-x="1294" 
d="M1361 1192c0 -32.667 -8.33301 -61.3311 -25 -85.998c-8 5.33301 -14.667 8.66602 -20 9.99902c-18 6.66699 -36 10 -54 10c-28.667 0 -56 -10.667 -82 -32c-1.33301 -26 -2.66602 -46.667 -3.99902 -62c-9.33301 -118.667 -14 -210.667 -14 -276
c0 -140.667 12.333 -271 37 -391l41 -177c8 -43.333 12 -69.666 12 -78.999c0 -11.333 -2 -20.333 -6 -27c-15.333 -20.667 -43.333 -31 -84 -31c-57.333 0 -90 36.333 -98 109l-7 65c-21.333 24.667 -41.666 44 -60.999 58c-53.333 38 -110.666 57 -171.999 57
c-1.33301 -6.66699 -2 -17 -2 -31c0 -26 6 -54 18 -84l37 -90c0 -32.667 -15 -54.334 -45 -65.001c-16 -6 -32.333 -9 -49 -9c-24.667 0 -47.334 4.33301 -68.001 13c-2.66699 1.33301 -7.33398 4 -14.001 8c-6.66699 46.667 -20.334 80.667 -41.001 102
c-58.667 63.333 -169.334 99.666 -332.001 108.999c-43.333 2.66699 -76.666 4 -99.999 4h-25c-6.66699 0 -12.667 -0.666992 -18 -2c-32.667 14.667 -56.667 27.667 -72 39c-47.333 34 -71 71.333 -71 112c0 23.333 8 46.666 24 69.999l84 119
c56 78 115.333 150.333 178 217c33.333 34 95 90.667 185 170l131 113c-30 4 -56.667 7.33301 -80 10c-75.333 8 -126.666 12 -153.999 12c-22.667 0 -39 -0.666992 -49 -2c-60 -9.33301 -111 -18.333 -153 -27c-110.667 -22.667 -173 -34 -187 -34c-34 0 -51 28 -51 84
c0 36.667 11.667 60.167 35 70.5s104.666 15.5 243.999 15.5c99.333 0 193.333 -3 282 -9l232 -14c27.333 -1.33301 50.5 -15.666 69.5 -42.999s25.833 -54 20.5 -80c-31.333 -154 -47 -327.333 -47 -520v-57c0 -14 0.666992 -23.667 2 -29c16 -20.667 59.667 -46 131 -76
l102 -39l-16 299v228l-2 153c-2.66699 14 -4 42 -4 84c0 68.667 12 105 36 109c40 6.66699 70.333 10 91 10c31.333 0 47 -9.66699 47 -29c0 -4 -1.33301 -11.333 -4 -22c21.333 10.667 57.333 16 108 16c26 0 43.167 -2.66699 51.5 -8s12.5 -20.333 12.5 -45zM677 299.003
c-11.333 98 -17 177.334 -17 238.001c0 68 1.33301 132.667 4 194l8 187l-106 -82c-74 -56 -123 -97 -147 -123c-32 -32.667 -69 -84.667 -111 -156l-57 -98c40.667 -2.66699 72 -5.33398 94 -8.00098c99.333 -14 210 -64.667 332 -152z" />
    <glyph glyph-name="bn_nya" unicode="&#x99e;" horiz-adv-x="1548" 
d="M1523 639c0 -181.333 -60.666 -271.994 -181.999 -271.994c-57.333 0 -119 14.333 -185 43c-39.333 17.333 -74 36.333 -104 57c1.33301 -14 7.33301 -66.667 18 -158c2.66699 -20 6 -42.333 10 -67c40 -48 60 -89 60 -123c0 -56 -34.333 -84 -103 -84
c-31.333 0 -53.666 3.33301 -66.999 10c-6.66699 14 -11.334 25 -14.001 33c-27.333 57.333 -65.666 92 -114.999 104c-36.667 10 -78.334 15 -125.001 15c-35.333 0 -60 -3 -74 -9c-47.333 -18.667 -144.333 -43 -291 -73c-6.66699 -1.33301 -15.334 -2 -26.001 -2
c-83.333 0 -152.333 38.667 -207 116c-15.333 20.667 -26.333 38.667 -33 54l-49 98c0 90 23.333 135 70 135c17.333 0 34.333 -8 51 -24c2.66699 -12.667 5.33398 -23 8.00098 -31c16.667 -49.333 44.667 -95 84 -137c18 -19.333 61 -29 129 -29c42.667 0 96.667 4 162 12
c90 0 212.667 -8 368 -24c-4 27.333 -7.33301 62.666 -10 105.999c-6.66699 91.333 -10 157 -10 197c0 47.333 3.33301 130.666 10 249.999l10 139c-17.333 36.667 -35 53 -53 49c-143.333 -28.667 -234.666 -79.334 -273.999 -152.001c-6.66699 -12 -10 -21.333 -10 -28
c0 -10 15 -16.333 45 -19c43.333 -4 72.666 -8.66699 87.999 -14c34 -10.667 54.333 -31 61 -61c2.66699 -12.667 4 -23 4 -31c0 -36.667 -17 -67.334 -51 -92.001s-70.333 -37 -109 -37c-42 0 -102 38.333 -180 115c-20.667 20 -31 43 -31 69c0 31.333 16 72.333 48 123
c10.667 18 45.334 52.667 104.001 104c54.667 49.333 93.667 81.666 117 96.999c109.333 70.667 203.333 106 282 106c48 0 80.333 -6 97 -18c13.333 -19.333 24.666 -35 33.999 -47l7 -41c0 -26 -0.666992 -47.333 -2 -64c-4.66699 -22 -7 -38.333 -7 -49
c114.667 101.333 200 152 256 152c50.667 0 89 -18.833 115 -56.5s39 -82.5 39 -134.5c0 -28.667 -11.667 -64 -35 -106c-6.66699 -12.667 -28.334 -37.334 -65.001 -74.001c46 -6.66699 78.667 -17.667 98 -33c24.667 -18.667 37 -50 37 -94zM1369 641.006
c-9.33301 2.66699 -18.6699 3.99902 -28.0029 3.99902l-50 -2c-51.333 0 -81.333 21.333 -90 64c-2.66699 13.333 -4 28.333 -4 45v24c0 5.33301 0.666992 10.333 2 15c31.333 4 70.333 26.167 117 66.5s70 74.833 70 103.5c0 16 -15.667 24 -47 24
c-45.333 0 -94.666 -12.667 -147.999 -38s-95.666 -55 -126.999 -89l-16 -178c6.66699 -12 14.667 -28.333 24 -49c64.667 -114.667 130.334 -172 197.001 -172c30 0 61.333 15 94 45c24.667 22 37 50 37 84c0 28.667 -10.333 46.334 -31 53.001z" />
    <glyph glyph-name="bn_tta" unicode="&#x99f;" horiz-adv-x="929" 
d="M948 1114c-1.33301 -2.66699 -4.66504 -6.66016 -9.99805 -11.9932c-50.667 12 -116.667 23.667 -198 35c-109.333 14.667 -198.333 22 -267 22c-114.667 0 -190.334 -17 -227.001 -51c8 -196.667 12 -336.667 12 -420c0 -208.667 -9.33301 -357.334 -28 -446.001
c76 30 133.333 54.333 172 73c120 62 211.333 148.667 274 260c28.667 52 43 93.667 43 125c0 12.667 -2 21 -6 25c-5.33301 6.66699 -14.333 6.66699 -27 0c-5.33301 -4 -25 -20.333 -59 -49c-2.66699 -2.66699 -21.667 -23.334 -57 -62.001c-14 -14.667 -36 -24 -66 -28
s-56.333 16.833 -79 62.5s-29 82.167 -19 109.5c20 54.667 58.667 90.667 116 108c37.333 12.667 93.333 19 168 19c109.333 0 173 -21.333 191 -64c10.667 -26 16 -58.667 16 -98c0 -110.667 -57.333 -227.334 -172 -350.001
c-58.667 -62.667 -163.667 -132.334 -315 -209.001c-68.667 -35.333 -160.334 -68 -275.001 -98c-14.667 -4.66699 -26 -7 -34 -7c-36 0 -54 21.333 -54 64c0 24.667 3.66699 43.667 11 57c32.667 96 49 260 49 492c0 125.333 -6.33301 255.666 -19 390.999
c-23.333 19.333 -60 31.666 -110 36.999c-4 4 -6.66699 7.33301 -8 10c-15.333 23.333 -23 52 -23 86c0 12 4 23.667 12 35l13 12c21.333 5.33301 50.666 -4.33398 87.999 -29.001c12 -8 29 -20.667 51 -38c34 22.667 71.333 41 112 55c76.667 24.667 225.667 37 447 37
c36.667 32.667 55 55.667 55 69c0 20.667 -23.667 44.667 -71 72c-60.667 32.667 -123 49 -187 49h-76c-18.667 0 -44.334 2 -77.001 6l-113 15c-2.66699 1.33301 -6 2 -10 2c-8.66699 0 -21.5 -2.5 -38.5 -7.5s-28.833 -7.5 -35.5 -7.5c-20.667 0 -31 12.333 -31 37
c0 14 20.667 27 62 39c6.66699 1.33301 17.167 2.66602 31.5 3.99902s66.5 3.33301 156.5 6s172 4 246 4h51c10.667 -2.66699 18.334 -4 23.001 -4c54.667 -8 87.334 -14 98.001 -18c56 -20.667 84 -61.667 84 -123c0 -45.333 -13.667 -95 -41 -149l172 -17
c5.33301 -8 8 -22.333 8 -43c0 -13.333 -2 -28.166 -6 -44.499s-11.667 -30.833 -23 -43.5z" />
    <glyph glyph-name="bn_ttha" unicode="&#x9a0;" horiz-adv-x="946" 
d="M1004 1169c0 -40.667 -8.99805 -63.6699 -26.998 -69.0029c-14.667 5.33301 -35 11.333 -61 18c-49.333 12.667 -100 19 -152 19c-74.667 0 -142 -14.333 -202 -43c5.33301 -7.33301 59.666 -70.333 162.999 -189c50.667 -57.333 86.334 -101 107.001 -131
c30 -43.333 49.667 -100.666 59 -171.999c4 -31.333 6 -92.666 6 -183.999c0 -97.333 -40 -178.666 -120 -243.999c-124.667 -102.667 -226.667 -154 -306 -154c-94 0 -184.667 63.667 -272 191c-72 105.333 -117.667 205 -137 299c-2.66699 13.333 -4 24.333 -4 33
c0 48.667 42.333 80 127 94c26 4 86 6 180 6c5.33301 0 8 10.333 8 31c0 46 -8.5 112.833 -25.5 200.5s-34.5 153.834 -52.5 198.501c-61.333 35.333 -126.666 53 -195.999 53c-42.667 0 -85.667 -7.33301 -129 -22c-4 4 -6.66699 7.33301 -8 10
c-15.333 19.333 -23 39.333 -23 60c0 21.333 3.33301 39.666 10 54.999c1.33301 4 4.66602 9.33301 9.99902 16c19.333 10 46 15 80 15c72.667 0 150 -16 232 -48c-1.33301 1.33301 -10.166 17.833 -26.499 49.5l-55.5 110.5c-48 106.667 -72 193.334 -72 260.001
c0 54.667 21.333 91.667 64 111c27.333 13.333 71.666 20 132.999 20c47.333 0 71 -41.667 71 -125c0 -38 -14.333 -59.667 -43 -65c-13.333 -2.66699 -22 -4 -26 -4c-20.667 1.33301 -32.334 2 -35.001 2c-32.667 0 -49 -13 -49 -39c0 -24.667 28 -76.667 84 -156
c65.333 -92.667 117 -151.334 155 -176.001c96 34 222.333 51 379 51c71.333 0 118.666 -2 141.999 -6c8 -28.667 12 -54 12 -76zM713.002 314.997c2.66699 14 4.00098 32.001 4.00098 54.001c0 104.667 -19.667 207 -59 307c-18 46 -52.333 111.333 -103 196
c-54 92 -95.333 152.333 -124 181c21.333 -64.667 43 -151.334 65 -260.001c22 -116.667 33 -205 33 -265c0 -61.333 -32 -92 -96 -92c-26 0 -58.333 2.66699 -97 8c-23.333 0 -35 -10 -35 -30c0 -36 7.66699 -79.667 23 -131c19.333 -66 41.333 -99 66 -99
c61.333 0 122.666 9.66699 183.999 29c84.667 26 131 60 139 102z" />
    <glyph glyph-name="bn_dda" unicode="&#x9a1;" horiz-adv-x="1089" 
d="M1156 1184c0 -32.667 -10.334 -56.668 -31.001 -72.001c-2.66699 -1.33301 -7.33398 -4 -14.001 -8c-32.667 9.33301 -84 21 -154 35l-65 6c-15.333 1.33301 -29.666 2 -42.999 2c-144.667 0 -235.667 -64.333 -273 -193c-13.333 -47.333 -20 -89.666 -20 -126.999
c0 -32.667 3.33301 -60 10 -82c12 -8 26.333 -12 43 -12c39.333 0 88.333 26 147 78c22 19.333 47.333 45.333 76 78c8 2.66699 27.333 4 58 4c74.667 0 117 -8.33301 127 -25c14.667 -80 22 -173.333 22 -280c0 -126 -13 -223.667 -39 -293
c-42 -113.333 -140.333 -170 -295 -170c-30 0 -58.667 2 -86 6c-185.333 27.333 -336.666 73.666 -453.999 138.999c-27.333 15.333 -51.333 30.333 -72 45c-76.667 56 -115 105.333 -115 148c0 17.333 11.667 26 35 26c26 0 46.333 -6 61 -18
c80.667 -65.333 139 -105.666 175 -120.999c60 -26 148 -44.333 264 -55c6.66699 -1.33301 14 -2 22 -2h27c158 0 250.667 36 278 108c14 36 21 77.667 21 125c0 54.667 -8.33301 108 -25 160c-88.667 -78 -177.334 -117 -266.001 -117
c-53.333 0 -95.666 23.333 -126.999 70c-8 12 -19 35.333 -33 70l-2 391c-31.333 26 -69.333 39 -114 39c-14 0 -34.333 -2.16699 -61 -6.5s-47.5 -6.5 -62.5 -6.5s-38.167 -4.33301 -69.5 -13s-54.666 -13 -69.999 -13c-12 1.33301 -21.333 2 -28 2
c-8.66699 9.33301 -14.334 16.666 -17.001 21.999c-10.667 18 -16 33.667 -16 47c0 16.667 6.66699 36 20 58c2 4 5.66699 9.33301 11 16c61.333 10 119.333 15 174 15c165.333 0 278 -20 338 -60c66.667 35.333 163.667 53 291 53h131c99.333 0 161.333 -3.33301 186 -10
c8 -6.66699 13.333 -12 16 -16c12.667 -15.333 19 -29.666 19 -42.999z" />
    <glyph glyph-name="bn_ddha" unicode="&#x9a2;" horiz-adv-x="921" 
d="M980 1155c-2.66699 -14.667 -9.66406 -28.332 -20.9971 -40.999c-2.66699 -4 -8 -8.66699 -16 -14c-158.667 38 -316.334 57 -473.001 57c-105.333 0 -180 -14.333 -224 -43l9 -219c2.66699 -74 4 -143 4 -207c0 -208.667 -9.66699 -357.334 -29 -446.001
c70 27.333 126.667 55.333 170 84c124 78.667 219 171.334 285 278.001c34 54.667 51 97.667 51 129c0 16.667 -4.66699 25 -14 25c-7.33301 0 -13.666 -4.33301 -18.999 -13l-57 -79c-20.667 -28.667 -55.667 -43 -105 -43c-28.667 0 -58.334 25.167 -89.001 75.5
s-40.334 89.166 -29.001 116.499c22.667 60 112 90 268 90c109.333 0 172.666 -21 189.999 -63c11.333 -26 17 -59 17 -99c0 -107.333 -57.333 -224 -172 -350c-78 -84.667 -182 -160.334 -312 -227.001c-78.667 -41.333 -155 -69.333 -229 -84
c-28.667 -5.33301 -56.667 14.334 -84 59.001c-5.33301 10 -15.666 34 -30.999 72c24.667 70.667 37 223.667 37 459c0 102 -5.33301 242.667 -16 422c-12.667 16 -32 24 -58 24c-20 0 -41.667 -5.33301 -65 -16c-27.333 14.667 -41 40.667 -41 78c0 16 2 33 6 51
c0 9.33301 10.333 14 31 14c30 0 65.333 -8 106 -24c-2.66699 4 -4 7.33301 -4 10c-4 10.667 -6 18.667 -6 24c0 10 3.33301 17.667 10 23c33.333 5.33301 69 8 107 8c30 0 48.667 -8.83301 56 -26.5s11.666 -26.5 12.999 -26.5l82 16c210.667 0 421 -1.33301 631 -4
c19.333 -27.333 26.333 -57.333 21 -90z" />
    <glyph glyph-name="bn_nna" unicode="&#x9a3;" horiz-adv-x="933" 
d="M975 1147c-1.33301 -18 -9.00293 -30.0029 -23.0029 -36.0029c-4 -2.66699 -19 -7 -45 -13c-31.333 -4.66699 -53 -10.667 -65 -18v-96c0 -88.667 -6.16699 -219.667 -18.5 -393s-18.5 -303.333 -18.5 -390v-60c0 -17.333 0.666992 -32 2 -44v-48
c0 -61.333 -12.333 -95 -37 -101c-19.333 -5.33301 -35 24.667 -47 90c-4 22 -8.66699 55.667 -14 101c-10 32.667 -15 69.334 -15 110.001v58c0 -10.667 0.666992 0.333008 2 33v37l-12 438c-18 46 -43.333 91.333 -76 136c-43.333 60 -83.666 90 -120.999 90
c-72 0 -123 -3.66699 -153 -11c-70 -18 -129.333 -57.667 -178 -119c-7.33301 -9.33301 -11 -19.666 -11 -30.999c0 -23.333 15 -45 45 -65c26 -18 52.667 -28 80 -30c10 0 20.333 12.5 31 37.5s25 39.167 43 42.5c24.667 4 54.667 -14.5 90 -55.5s53 -73.5 53 -97.5
c0 -48 -42.333 -80.333 -127 -97c-38 -7.33301 -60.333 -11 -67 -11c-5.33301 0 -11.666 0.666992 -18.999 2c-16 4.66699 -29.667 7.66699 -41 9c-69.333 15.333 -120.333 70.333 -153 165c-23.333 69.333 -35 147.333 -35 234c0 68 8.33301 113.667 25 137
c28.667 39.333 90 59 184 59c60 0 149.333 -25 268 -75c40 -16 94 -41 162 -75l6 223c4 10 22.333 15 55 15c52 0 87 -5 105 -15c2.66699 -6 3.33398 -17 2.00098 -33c-2.66699 -12.667 -4 -20.667 -4 -24c44.667 13.333 78.667 20 102 20c22 0 33 -9.66699 33 -29
c0 10.667 -2.66699 -12.666 -8 -69.999z" />
    <glyph glyph-name="bn_ta" unicode="&#x9a4;" horiz-adv-x="1179" 
d="M1254 1176c0 -30.667 -15 -56.6709 -45 -78.0039c-12 1.33301 -33.667 7.5 -65 18.5s-54.666 16.5 -69.999 16.5c-26 0 -64.333 -18.667 -115 -56c45.333 -52 80.333 -116 105 -192c12 -38.667 26.333 -105.667 43 -201c4 -24.667 6 -56 6 -94
c0 -224 -43.667 -372.333 -131 -445c-45.333 -36.667 -112.333 -55 -201 -55h-67c-22 4 -38.667 6.66699 -50 8c-61.333 8.66699 -133.666 33.334 -216.999 74.001c-74.667 36.667 -139.334 77.667 -194.001 123c-76.667 62.667 -147 143.334 -211 242.001
c-11.333 16 -17 33 -17 51c0 27.333 12.333 45.666 37 54.999c19.333 5.33301 38.666 -5.66699 57.999 -33c4 -6.66699 12 -19 24 -37c19.333 -25.333 37.833 -47.666 55.5 -66.999s57.834 -55.666 120.501 -108.999c100 -84.667 209.333 -127 328 -127
c196.667 0 295 130.667 295 392v45c-2.66699 10.667 -4 18 -4 22c-8 71.333 -29.333 142.333 -64 213c-43.333 91.333 -89 132.333 -137 123c-40.667 -8 -82.334 -27 -125.001 -57c-50.667 -36 -76 -71.667 -76 -107c0 -18 17.333 -29 52 -33l34 -4
c16.667 -1.33301 35.334 -3.33301 56.001 -6c35.333 -13.333 49.666 -34.333 42.999 -63c-22 -93.333 -70 -140 -144 -140c-100.667 0 -171.667 45.333 -213 136c-5.33301 12 -8 27 -8 45c0 36.667 13 79.667 39 129l72 120c-16.667 19.333 -94.667 29 -234 29h-28
c-128.667 0 -205.334 -4 -230.001 -12c-8 20.667 -12 42.334 -12 65.001c0 20.667 6 40.667 18 60c6 10.667 17.667 16 35 16h21c21.333 0 54 -2.66699 98 -8s76.667 -8 98 -8c124.667 0 232.667 -13 324 -39c48 28.667 96.333 43 145 43c61.333 0 113.333 -21.333 156 -64
c78 54.667 173 82 285 82c22.667 0 47.667 -4 75 -12c8.66699 -5.33301 14.334 -10 17.001 -14c12 -14 18 -29.667 18 -47z" />
    <glyph glyph-name="bn_tha" unicode="&#x9a5;" horiz-adv-x="1056" 
d="M1122 1190c0 -53.333 -10.9961 -82.002 -32.9961 -86.002c-6.66699 -1.33301 -16 -1.33301 -28 0c-14 1.33301 -29.667 2 -47 2c-38.667 0 -59.334 -9.66699 -62.001 -29c-5.33301 -36.667 -10 -95.334 -14 -176.001c-5.33301 -112 -8 -195.333 -8 -250
c0 -72 6.66699 -175.667 20 -311c4 -35.333 8 -64 12 -86c11.333 -15.333 19.666 -27.666 24.999 -36.999c16.667 -30 25 -57.333 25 -82c1.33301 -10.667 2 -19.334 2 -26.001c0 -33.333 -17.333 -57.333 -52 -72c-17.333 -8 -57.333 -12 -120 -12h-39
c-14 54 -34.667 89.333 -62 106c-53.333 32.667 -160.333 61.334 -321 86.001c-44 6.66699 -128 17.667 -252 33c-19.333 12 -39.833 43.333 -61.5 94s-32.5 89 -32.5 115c0 16 19 35.667 57 59c18 9.33301 44 23.666 78 42.999c66.667 38 131.334 81.667 194.001 131
c94.667 72.667 146 130 154 172c8 42.667 -37.667 88.334 -137 137.001c-88.667 44 -157.667 66 -207 66c-12.667 0 -19 -2.66699 -19 -8c84.667 -87.333 124.334 -155 119.001 -203c-5.33301 -39.333 -42 -59 -110 -59c-46.667 0 -78.334 10 -95.001 30
c-24 28.667 -36 93 -36 193l-62 43c-2.66699 16 9.66602 49.333 36.999 100c4 0 15.667 -6.66699 35 -20c8 -5.33301 14 -8.66602 18 -9.99902c32.667 47.333 118 71 256 71c46.667 0 107.334 -27.333 182.001 -82c88 -62.667 136.667 -128 146 -196
c5.33301 -41.333 -9.66699 -100 -45 -176c-31.333 -68.667 -63.5 -122.834 -96.5 -162.501s-71.833 -80.5 -116.5 -122.5c-11.333 -9.33301 -32 -27.666 -62 -54.999l101 -33c57.333 -19.333 112.666 -40 165.999 -62c31.333 -13.333 68.666 -33.666 111.999 -60.999
c15.333 -9.33301 34 -21.666 56 -36.999c-6 142 -9 301.667 -9 479c0 199.333 2.33301 367.333 7 504c1.33301 45.333 2.66602 68.666 3.99902 69.999c9.33301 12 32.333 18 69 18c53.333 0 80 -14.333 80 -43v-33c46.667 22 89 33 127 33c30 0 45 -18.333 45 -55z" />
    <glyph glyph-name="bn_da" unicode="&#x9a6;" horiz-adv-x="897" 
d="M910 1120c-49.333 4.66699 -100.668 9.00488 -154.001 13.0049c-120 8.66699 -209.333 13 -268 13h-41c-16.667 -2.66699 -27.667 -4 -33 -4c-20.667 -2.66699 -46 -6.33398 -76 -11.001c-46 -8.66699 -76.667 -21 -92 -37l-16 -413c57.333 39.333 146 95 266 167l156 78
c10.667 -3.33301 28.334 -10.666 53.001 -21.999c32.667 -14.667 55.667 -29.667 69 -45c26 -28.667 49.333 -68.334 70 -119.001c-19.333 -28.667 -32.333 -65 -39 -109c-2.66699 -38 -6 -76.333 -10 -115c-2.66699 -22 -6.66699 -62.333 -12 -121
c-2.66699 -38 -4 -72 -4 -102v-83c0 -20.667 1.33301 -52.834 4 -96.501s4 -75.834 4 -96.501v-15c0 -4.66699 0.666992 -11.334 2 -20.001c0 -46 -10.333 -70.333 -31 -73c-26 3.33301 -45 43 -57 119c-8.66699 50 -13 98.667 -13 146c-1.33301 6 -3.33301 12.667 -6 20
c-21.333 68.667 -32 149.334 -32 242.001c0 119.333 4.66699 202 14 248c-1.33301 6 -5.33301 16.667 -12 32c-11.333 22 -25 33 -41 33c-7.33301 0 -14.333 -2 -21 -6c-19.333 -10.667 -56.666 -48 -111.999 -112c-45.333 -50.667 -75 -82.667 -89 -96l-65 -78
c-23.333 -25.333 -50.666 -38 -81.999 -38c-28.667 0 -54.334 7.5 -77.001 22.5l-64 43.5c-24.667 19.333 -37 39 -37 59c0 15.333 2.66699 27.666 8 36.999c4 20 8.66699 48.667 14 86c11.333 76 17 128.667 17 158c0 99.333 -2.66699 189 -8 269
c-12.667 7.33301 -53.667 15.333 -123 24c-19.333 10 -29 29.333 -29 58c0 17.333 3.33301 34.333 10 51c1.33301 4.66699 4.66602 10.667 9.99902 18c37.333 0 72.333 -8 105 -24c2.66699 -2 10 -6 22 -12v21c0 17.333 7 27.333 21 30c4 1.33301 19.667 2 47 2
c31.333 0 56.666 -2 75.999 -6c5.33301 -1.33301 10 -15 14 -41c4 2 58.667 7.66699 164 17c28.667 2.66699 96.334 5 203.001 7l311 8c16.667 -14.667 25 -33.334 25 -56.001c0 -53.333 -13.667 -77 -41 -71z" />
    <glyph glyph-name="bn_dha" unicode="&#x9a7;" horiz-adv-x="946" 
d="M1000 1159c-7.33301 -35.333 -18.998 -54.334 -34.998 -57.001c-5.33301 2.66699 -9.66602 4 -12.999 4c-21.333 6.66699 -41 10 -59 10c-27.333 0 -45.666 -8 -54.999 -24c0 -10 -2 -43 -6 -99c-11.333 -172 -17 -291.333 -17 -358c0 -192.667 9 -362 27 -508
c10.667 -4 25.667 -17.667 45 -41l-6 -12c-27.333 -48 -81.333 -72 -162 -72h-16c-4.66699 0 -9 0.666992 -13 2l-22 74c-53.333 49.333 -110.666 87.666 -171.999 114.999c-139.333 61.333 -259.666 110.333 -360.999 147c-21.333 24.667 -36.333 43 -45 55
c-30 45.333 -45 86.333 -45 123c0 26 46.333 86.667 139 182c6 6 39.667 37.667 101 95c14.667 14.667 33 31 55 49c-28.667 9.33301 -71 35.333 -127 78c-76.667 57.333 -124.334 123.333 -143.001 198c-1.33301 2.66699 -17 11.667 -47 27
c-14 6.66699 -22 15.834 -24 27.501s-3 24.167 -3 37.5c-1.33301 23.333 -1.33301 38.333 0 45c5.33301 2 28.666 -8 69.999 -30c13.333 35.333 42.666 62.666 87.999 81.999c38 16 79 24 123 24c38 0 63 -11.667 75 -35c22 -39.333 33 -78.666 33 -117.999
c0 -36 -11 -62 -33 -78c-2.66699 -2.66699 -10 -4 -22 -4c-15.333 0 -38.333 3.66699 -69 11s-53.334 11 -68.001 11c-8.66699 0 -14.334 -1.33301 -17.001 -4c-4 -4 -3.33301 -10 2 -18c23.333 -37.333 83.666 -70.333 180.999 -99c30 -8 77 -18.667 141 -32
c30 18.667 86 50 168 94l-4 196h102c60 0 135 -4 225 -12c8.66699 -12 13 -28.333 13 -49c0 -9.33301 -1.33301 -21.666 -4 -36.999zM676.002 200.999l-12 397c-4 118.667 -1.33301 221 8 307l-88 -55c-64 -44 -110 -81.333 -138 -112s-64.667 -80.667 -110 -150l-66 -105
c30.667 -16 54 -29 70 -39c118.667 -68 230.667 -149 336 -243z" />
    <glyph glyph-name="bn_na" unicode="&#x9a8;" horiz-adv-x="1089" 
d="M1153 1151c-8 -28.667 -16.665 -45.6699 -25.998 -51.0029c-2.66699 -1.33301 -6.33398 -1.33301 -11.001 0c-30 10.667 -60.667 16 -92 16c-34 0 -54.333 -24.667 -61 -74c0 -25.333 -0.666992 -63.333 -2 -114c-4 -158.667 -6 -255 -6 -289
c0 -60 7.33301 -145.333 22 -256c6.66699 -45.333 14.334 -92.333 23.001 -141c5.33301 -10 11.333 -22.333 18 -37c14 -31.333 21 -58 21 -80c0 -10.667 -0.666992 -18.334 -2 -23.001c-8.66699 -26 -16.334 -41.667 -23.001 -47s-23.667 -12.666 -51 -21.999
c-8 -2.66699 -19 -4 -33 -4c-20.667 0 -38.334 3.33301 -53.001 10c-4 1.33301 -11.667 4.66602 -23 9.99902c0 54.667 -3.66699 96.334 -11 125.001s-24.666 67.667 -51.999 117c-32.667 58.667 -74.334 111.334 -125.001 158.001c-70 62.667 -138.333 94 -205 94
c-46.667 0 -100.667 -18 -162 -54c-90 -51.333 -135 -106.333 -135 -165c0 -14 8.33301 -21 25 -21c26 0 68.333 13.667 127 41c12 5.33301 25 8 39 8c42 0 67.667 -21.667 77 -65c4.66699 -20.667 7 -53 7 -97c0 -44.667 -5.66699 -71 -17 -79
c-36.667 -26 -81.667 -39 -135 -39c-28.667 0 -47.667 2 -57 6c-112 26 -168 128.333 -168 307v37c2.66699 16 4 28.333 4 37c16 160.667 85.667 241 209 241c95.333 0 187.333 -19 276 -57c62.667 -27.333 150.667 -78.666 264 -153.999c-6.66699 64.667 -10 155 -10 271
c0 138 3.33301 234.333 10 289c-21.333 9.33301 -80 21.333 -176 36c-143.333 23.333 -263.333 35 -360 35c-102.667 0 -202.334 -6 -299.001 -18c-22 9.33301 -33 35.333 -33 78c0 17.333 7.66699 33 23 47l22 16c71.333 9.33301 143 14 215 14c126 0 298 -21.667 516 -65
c27.333 -5.33301 63.666 -13.666 108.999 -24.999c23.333 52 67 79.333 131 82c10.667 0 26.334 0.666992 47.001 2c44.667 0 82.334 -2.66699 113.001 -8c22.667 -23.333 34 -46.333 34 -69c0 -6 -1.33301 -13.667 -4 -23z" />
    <glyph glyph-name="bn_pa" unicode="&#x9aa;" horiz-adv-x="1064" 
d="M1082 1102c-13.333 1.33301 -23.999 2.00098 -31.999 2.00098c-46.667 0 -73.334 -6.33301 -80.001 -19l-4 -913l10 -170c-8 -8 -24.333 -12 -49 -12c-80.667 0 -122.334 17.667 -125.001 53c10.667 164 16 275.333 16 334c0 43.333 1.33301 86.333 4 129l15 223
c1.33301 23.333 -3.5 45.833 -14.5 67.5s-17.833 36.167 -20.5 43.5c-146 -24.667 -318 -128.667 -516 -312c-11.333 -8 -26.333 -12 -45 -12c-28.667 0 -55.334 6.33301 -80.001 19c-31.333 14.667 -47.666 35 -48.999 61c4 98 -20.667 272 -74 522
c15.333 44 32.333 75.333 51 94c114.667 11.333 213.667 17 297 17c128.667 0 228.334 -10.333 299.001 -31c22 -6.66699 54 -29.334 96 -68.001c16.667 -14.667 27 -20.667 31 -18c4 4 6 10 6 18c0 10 -1.33301 23.5 -4 40.5s-4 30.167 -4 39.5c0 34.667 16.333 52 49 52
c48 0 125.333 -6.33301 232 -19c12 -5.33301 18 -22.333 18 -51c0 -52 -9 -82 -27 -90zM763.001 938.001c-6.66699 27.333 -23.335 58.333 -50.002 93s-52.334 57 -77.001 67c-31.333 12 -74.333 18 -129 18c-36.667 0 -120 -8.66699 -250 -26
c-13.333 -4.66699 -18.666 -15 -15.999 -31l47 -275c2.66699 -14.667 9.33398 -18.667 20.001 -12c84.667 41.333 184.334 80.333 299.001 117z" />
    <glyph glyph-name="bn_pha" unicode="&#x9ab;" horiz-adv-x="1327" 
d="M1352 1126c-1.33301 -8 -21.335 -16.6689 -60.002 -26.002c-5.33301 -1.33301 -14 -3.33301 -26 -6c-76.667 12 -134 20 -172 24c-135.333 16.667 -257 25 -365 25c-188 0 -315 -24.667 -381 -74c-5.33301 -2.66699 -10.666 -6.66699 -15.999 -12
c26 -15.333 43.667 -26.333 53 -33c38.667 -27.333 87.334 -77.333 146.001 -150c17.333 -21.333 33 -52 47 -92c5.33301 -51.333 -37 -111.333 -127 -180c-7.33301 -5.33301 -39.666 -31.333 -96.999 -78l-55 -45l262 -65c37.333 -10 75.666 -31.333 114.999 -64
c8 -6.66699 24.333 -22.334 49 -47.001c-2.66699 38 -4 94.667 -4 170c0 337.333 39.667 518.333 119 543c22 6.66699 42.333 10 61 10c28.667 0 59.334 -6.66699 92.001 -20c14 -6 38.667 -19.667 74 -41c80.667 -49.333 138.334 -102.666 173.001 -159.999
s52 -132.333 52 -225c0 -90.667 -18.333 -159.667 -55 -207c-23.333 -30 -40.333 -50 -51 -60c-19.333 -16 -44.666 -24 -75.999 -24c-46 0 -74.667 26.667 -86 80c-5.33301 28.667 -8 45 -8 49c0 27.333 4 54.666 12 81.999c2.66699 9.33301 7.66699 21 15 35l110 18
c36.667 5.33301 55 20.333 55 45c0 22 -32.667 67 -98 135c-14.667 15.333 -38.834 32.166 -72.501 50.499s-59.834 27.5 -78.501 27.5c-19.333 0 -40 -16.333 -62 -49c-5.33301 -8 -14.666 -24.333 -27.999 -49l-5 -176c-1.33301 -40 5 -104.333 19 -193
c2.66699 -19.333 8.66699 -56.333 18 -111l21 -86c-12.667 -40.667 -44 -61 -94 -61c-27.333 0 -53.333 6 -78 18c-4 1.33301 -9.66699 5 -17 11c-16 66.667 -59.667 116.334 -131 149.001c-42 20.667 -108 33 -198 37c-44 2.66699 -113.667 4.66699 -209 6
c-31.333 20.667 -54.666 38.334 -69.999 53.001c-46.667 46.667 -70 96.667 -70 150c0 23.333 3.66699 44.333 11 63l307 222c-14 90 -87 173 -219 249c-42.667 24.667 -88.334 41.334 -137.001 50.001c-44 0 -66 17.667 -66 53c0 34 6.66699 60.667 20 80
c4.66699 5.33301 11.667 11.333 21 18c14.667 -2.66699 27 -4.66699 37 -6c57.333 -13.333 99.666 -31.666 126.999 -54.999l82 16c70.667 14 122.334 23.667 155.001 29c109.333 16 250.666 24 423.999 24c117.333 0 237.666 -4 360.999 -12
c27.333 -1.33301 79 -5.33301 155 -12c16.667 -5.33301 25 -23 25 -53c0 -10 -2 -26.667 -6 -50z" />
    <glyph glyph-name="bn_ba" unicode="&#x9ac;" horiz-adv-x="1075" 
d="M1106 1104c-2.66699 -1.33301 -7.50098 -1.66602 -14.501 -0.999023s-15.833 1 -26.5 1c-90 0 -135 -143.333 -135 -430v-39c0 -52 4.66699 -131.333 14 -238c4 -42 9 -88.333 15 -139l32 -53c23.333 -40 32.333 -69.333 27 -88
c-5.33301 -20.667 -13.666 -34.334 -24.999 -41.001c-43.333 -22 -79.333 -33 -108 -33h-23c-5.33301 0 -10 0.666992 -14 2c-10.667 32.667 -23 58.667 -37 78c-61.333 94 -168.333 154.667 -321 182c-68.667 12.667 -133.667 19 -195 19c-34 0 -72.333 -3 -115 -9
c-32.667 23.333 -58.334 44 -77.001 62c-42.667 38 -64 68 -64 90c0 48 41.667 122.333 125 223c60 74 120.667 138.333 182 193c41.333 36.667 104.333 80.334 189 131.001c17.333 9.33301 60.333 34.666 129 75.999c-114.667 30 -203.667 45 -267 45
c-206 0 -341.667 -10.333 -407 -31c-24.667 6.66699 -37 34.667 -37 84c0 28.667 2 47.667 6 57c49.333 5.33301 115 8 197 8h71c20.667 0 48.667 -2.66699 84 -8l301 -16c74 -4 135 -12.333 183 -25c24.667 11.333 50.667 17 78 17c25.333 0 51 -3.66699 77 -11
c4.66699 0 10.334 -2 17.001 -6c47.333 20.667 88.333 31 123 31c5.33301 0 12 -0.666992 20 -2c4 -6.66699 7.33301 -13 10 -19c8.66699 -14.667 13 -31 13 -49c0 -32.667 -9 -53 -27 -61zM812.999 1040c-224 -118.667 -392.667 -293.333 -506 -524l125 -18
c66 -10 138.333 -41.667 217 -95c58.667 -39.333 110 -76.666 154 -111.999c-20.667 95.333 -31 216.666 -31 363.999c0 142 13.667 270.333 41 385z" />
    <glyph glyph-name="bn_bha" unicode="&#x9ad;" horiz-adv-x="1179" 
d="M1229 1176c0 -32 -7.00684 -53.9951 -21.0068 -65.9951c-4 -2.66699 -10.667 -5.33398 -20 -8.00098c-8 1.33301 -25.667 4.66602 -53 9.99902c-67.333 12 -115.333 18 -144 18c-38 0 -69.333 -6 -94 -18c-2.66699 -1.33301 -17.667 -11.666 -45 -30.999
c30 -38 45 -85.667 45 -143c0 -20.667 -4 -38.334 -12 -53.001c-22 -32.667 -55.333 -49 -100 -49h-31c-31.333 0 -51.333 1.33301 -60 4c-35.333 12 -60.333 42 -75 90c-4 13.333 -6 25 -6 35c0 12 1.33301 29 4 51c0 14.667 -7 24 -21 28c-22 7.33301 -48 -39 -78 -139
c-28.667 -92.667 -43 -160.334 -43 -203.001c0 -43.333 15 -65 45 -65c48 0 124.833 23.167 230.5 69.5s170.834 87.166 195.501 122.499c56 -6.66699 121.667 -34.667 197 -84c-27.333 -188 -75 -342 -143 -462c-33.333 -58.667 -78.666 -108 -135.999 -148
c-62.667 -43.333 -125.334 -65 -188.001 -65c-131.333 0 -266.666 62.667 -405.999 188c-74.667 68 -145.667 159.333 -213 274c-38 66 -57 120.667 -57 164c0 36 9.66699 54 29 54c14.667 0 32.334 -21.333 53.001 -64c5.33301 -10.667 15 -31.667 29 -63l49 -72
c100.667 -147.333 205 -248.333 313 -303c60 -30 109.333 -45 148 -45c38 0 78.333 17.667 121 53c36.667 30 65.334 64.667 86.001 104c35.333 67.333 57 141.333 65 222c-39.333 -36 -92.166 -65.833 -158.499 -89.5s-126.833 -35.5 -181.5 -35.5
c-22 0 -38.333 1.33301 -49 4c-62.667 14.667 -111 61 -145 139c-27.333 62.667 -41 131.667 -41 207v20c0 67.333 18.333 135.666 55 204.999c12 23.333 31 52 57 86c-42 5.33301 -89.667 8 -143 8c-41.333 0 -143.666 -8 -306.999 -24
c-19.333 32.667 -29 59.334 -29 80.001c0 16 4 32.333 12 49c16.667 10.667 49.667 16 99 16c34 0 66 -0.666992 96 -2l96 -4c39.333 -1.33301 83.666 -5.33301 132.999 -12l148 -25c32.667 14 63.334 21 92.001 21c42 0 91 -19.333 147 -58
c46.667 33.333 91.5 57.166 134.5 71.499s93.833 21.5 152.5 21.5c24.667 0 64.334 -3.66699 119.001 -11c5.33301 0 16.333 -1.33301 33 -4c10.667 -26 16 -49 16 -69z" />
    <glyph glyph-name="bn_ma" unicode="&#x9ae;" horiz-adv-x="964" 
d="M1011 1171c0 -20 -3.66602 -38.3301 -10.999 -54.9971c-1.33301 -5.33301 -4.66602 -11.333 -9.99902 -18h-14c-6.66699 0 -15 0.666992 -25 2c-56 0 -98.333 -11 -127 -33c41.333 -94 62 -220.333 62 -379c0 -61.333 -5.66699 -161 -17 -299
c-4 -53.333 -9.33301 -113.333 -16 -180c16 -49.333 24 -81.333 24 -96c0 -56 -30 -84 -90 -84c-24.667 0 -46.334 3.33301 -65.001 10c-5.33301 1.33301 -15 4.66602 -29 9.99902c-4 14 -12 37.333 -24 70c-18 47.333 -36.667 83.333 -56 108
c-32.667 41.333 -70 73 -112 95c-8.66699 4 -51 21.667 -127 53c-45.333 -90 -83 -135 -113 -135c-88.667 0 -153.667 32 -195 96c-16 26 -24 65 -24 117c0 73.333 18.333 118.333 55 135c22 9.33301 50 14 84 14c32.667 0 61.334 -2.66699 86.001 -8
c8 10.667 12 21.667 12 33c0 24.667 -29.333 77 -88 157l-60 84.5c-26.667 37 -40 69.833 -40 98.5c0 42 28.667 85.667 86 131c-8 2.66699 -27 8 -57 16c-15.333 4 -29 6 -41 6c-18 0 -33.667 -1.33301 -47 -4c-20.667 -6.66699 -36.334 -11.334 -47.001 -14.001
c-6 4 -9.66699 8 -11 12c-8 16.667 -12 38.667 -12 66c0 5.33301 3.33301 21 10 47c0 4 1.33301 10 4 18c15.333 1.33301 27.666 2 36.999 2c96 0 191.667 -19.667 287 -59c36.667 23.333 103.667 35 201 35c112 0 193.667 -22 245 -66c40 28.667 94.667 52 164 70
c23.333 5.33301 53.333 11.333 90 18c7.33301 -24.667 11 -49.334 11 -74.001zM746.001 709.003c0 182.667 -11.333 293.668 -34 333.001c-15.333 26 -44 46.667 -86 62c-37.333 13.333 -73 20 -107 20c-8 0 -47 -10.667 -117 -32c-72 -40 -108 -96.667 -108 -170
c0 -41.333 9.5 -82.833 28.5 -124.5s38.833 -82.334 59.5 -122.001s31 -77.167 31 -112.5c0 -14.667 -0.666992 -26.334 -2 -35.001c136 -83.333 230 -159.666 282 -228.999c35.333 177.333 53 314 53 410z" />
    <glyph glyph-name="bn_ya" unicode="&#x9af;" horiz-adv-x="962" 
d="M1016 1194c0 -27.333 -3.99805 -59.3359 -11.998 -96.0029c-12.667 1.33301 -22.334 2 -29.001 2c-56 0 -89.333 -12.333 -100 -37c-1.33301 -38 -2.66602 -70 -3.99902 -96c-10 -182 -15 -302.333 -15 -361c0 -56 3.66699 -152.333 11 -289
c2.66699 -46 6 -98.333 10 -157c1.33301 -15.333 11.666 -29 30.999 -41c0 -58.667 -9 -90 -27 -94c-24.667 -6 -71 6 -139 36l-21 62c-69.333 49.333 -169.666 106 -300.999 170c-150 73.333 -252.333 127.333 -307 162c-26 20 -39 45.667 -39 77
c0 70 27.333 115.333 82 136c13.333 -11.333 31 -19.666 53 -24.999c24.667 6.66699 65 27.834 121 63.501s88 62.167 96 79.5c-53.333 88 -131 167.333 -233 238c-42.667 28.667 -93.334 50.667 -152.001 66c-13.333 4 -40 8.66699 -80 14
c-2.66699 5.33301 -4 9.33301 -4 12c-6.66699 20.667 -10 36.334 -10 47.001c0 12.667 3.33301 32 10 58c0 4 1.33301 9.33301 4 16c11.333 5.33301 27 8 47 8c48 0 104 -15 168 -45c52 9.33301 98.667 17 140 23c108.667 14.667 196 22 262 22h59
c101.333 0 178.666 -23 231.999 -69c44.667 44.667 82 67 112 67c4 0 10.333 -1.33301 19 -4c10.667 -10.667 16 -25.667 16 -45zM733.002 237.997c-4 54 -6.66602 96.999 -7.99902 128.999c-5.33301 100.667 -8 180.334 -8 239.001c0 114.667 2.66699 268.334 8 461.001
c1.33301 52 -62.667 78 -192 78c-86 0 -161.333 -12.333 -226 -37c45.333 -35.333 90.666 -78.333 135.999 -129c22.667 -22 56 -59.667 100 -113c48 -57.333 77.333 -96 88 -116c-22 -42.667 -76.667 -93.334 -164 -152.001c-30 -15.333 -72.333 -40 -127 -74
c16.667 -24.667 45.334 -50.667 86.001 -78c23.333 -13.333 57.666 -35 102.999 -65z" />
    <glyph glyph-name="bn_ra" unicode="&#x9b0;" horiz-adv-x="1085" 
d="M1151 1143c-1.33301 -12.667 -7.33301 -22.999 -18 -30.999c-2.66699 -2.66699 -8.33398 -6 -17.001 -10c-5.33301 1.33301 -14.666 2.66602 -27.999 3.99902c-15.333 1.33301 -34 -12.334 -56 -41.001c-54.667 -23.333 -82 -166.666 -82 -429.999v-41
c0 -52 5 -131.333 15 -238c4 -42 8.66699 -88.333 14 -139l27 -37c17.333 -26 23.333 -49 18 -69c-1.33301 -6 -4 -16.333 -8 -31c-4 -5.33301 -23 -15.666 -57 -30.999c-10 -4 -20.333 -6 -31 -6c-24.667 0 -46 3.33301 -64 10c-8 1.33301 -18.667 5.66602 -32 12.999
l-43 57c-76.667 95.333 -152.667 152 -228 170c-50.667 12 -106 18 -166 18c-61.333 0 -126 -5.33301 -194 -16c-32.667 23.333 -58.667 43.666 -78 60.999c-42.667 38.667 -64 68.667 -64 90c0 30.667 30.333 86 91 166c39.333 53.333 101.333 125 186 215
c35.333 37.333 104.333 92.666 207 165.999c30 22 77 54.333 141 97c-114.667 30 -203.334 45 -266.001 45c-213.333 0 -356.666 -12.333 -429.999 -37c-23.333 6.66699 -35 32.667 -35 78c0 36.667 2 59 6 67c57.333 5.33301 134 8 230 8c84 0 231.333 -9.33301 442 -28
c75.333 -7.33301 139.333 -17.666 192 -30.999c20.667 9.33301 45.334 14 74.001 14c35.333 0 69.666 -6 102.999 -18c13.333 20.667 39 35.667 77 45c11.333 2.66699 29.333 5.33398 54 8.00098c2.66699 -5.33301 6.66699 -15 12 -29c8 -21.333 10.667 -44.333 8 -69z
M485 -44.999c-8 -4 -19.332 -8.66699 -33.999 -14l-49 12c-62 20.667 -93 59.667 -93 117c0 18.667 3.66699 39 11 61c0 4 1.33301 8 4 12c17.333 10 31 17 41 21c31.333 13.333 56.333 20 75 20c7.33301 0 13.666 -1.33301 18.999 -4c73.333 -28.667 110 -71 110 -127
c0 -34 -28 -66.667 -84 -98zM836.001 1004c-218.667 -90.667 -388 -260.001 -508 -508.001l125 -19c84.667 -12 204 -79.667 358 -203c-16 94.667 -24 192.334 -24 293.001c0 147.333 16.333 293 49 437z" />
    <glyph glyph-name="bn_la" unicode="&#x9b2;" horiz-adv-x="1142" 
d="M1170 1100c-20.667 4 -39.0039 6 -55.0039 6c-22 0 -37 -4 -45 -12c-16.667 -75.333 -25 -192.333 -25 -351c0 14 0.666992 -48.667 2 -188c-1.33301 -39.333 -0.666016 -107 2.00098 -203l21 -256c6.66699 -10.667 10 -20.667 10 -30c0 -34.667 -24.667 -52 -74 -52
c-32.667 0 -62.667 6.33301 -90 19l-31 479c-43.333 68 -77.333 99.333 -102 94c-9.33301 -2.66699 -29 -29.167 -59 -79.5s-46 -75.5 -48 -75.5l-73 10c-36 6.66699 -56.667 17 -62 31l-22 139c-16.667 88.667 -36 133 -58 133c-36.667 0 -95.667 -40.667 -177 -122
s-124 -141 -128 -179c-4 -32.667 12.333 -49 49 -49c34.667 0 72.334 24.333 113.001 73c16.667 19.333 31 29 43 29c24.667 0 55.334 -30.667 92.001 -92c15.333 -26 21.666 -45.667 18.999 -59c-7.33301 -28.667 -26.666 -55.667 -57.999 -81s-61.333 -38 -90 -38
c-60 5.33301 -120.667 36.666 -182 93.999c-71.333 66.667 -107 143.667 -107 231c0 58.667 16 111.334 48 158.001c24 32.667 64.667 71.667 122 117c93.333 72 174 108 242 108c62.667 0 114.667 -45.667 156 -137c10.667 -26 23 -63.333 37 -112
c72 72 114.333 107.333 127 106c14.667 0 37 -13.667 67 -41s50 -49 60 -65l4 323c-31.333 19.333 -79.166 38.833 -143.499 58.5s-116.833 32.167 -157.5 37.5c-57.333 7.33301 -127 11 -209 11c-128.667 0 -268 -11.667 -418 -35c-26 26 -39 52.667 -39 80
c0 20 5.33301 37 16 51l17 14c159.333 0 264.333 -0.666992 315 -2l230 -6c154 -4 283.667 -28.667 389 -74l10 119c6.66699 8 27 12 61 12c76.667 0 113.667 -6.66699 111 -20c2.66699 -11.333 4 -20.333 4 -27v-12c15.333 2.66699 50 6 104 10
c4.66699 -16 7 -33.667 7 -53c0 -45.333 -8.33301 -76 -25 -92z" />
    </font>
</defs>
</svg>
